<svg width="40" height="40" viewBox="0 0 40 40" fill="none" xmlns="http://www.w3.org/2000/svg">
     <g clip-path="url(#clip0_22_3482)">
          <circle cx="20" cy="20" r="19.5" stroke="#333333" />
          <path d="M24.6667 12H15.3333C13.4927 12 12 13.4927 12 15.3333V24.6667C12 26.5073 13.4927 28 15.3333 28H24.6667C26.508 28 28 26.5073 28 24.6667V15.3333C28 13.4927 26.508 12 24.6667 12ZM17.3333 24.6667H15.3333V17.3333H17.3333V24.6667ZM16.3333 16.488C15.6893 16.488 15.1667 15.9613 15.1667 15.312C15.1667 14.6627 15.6893 14.136 16.3333 14.136C16.9773 14.136 17.5 14.6627 17.5 15.312C17.5 15.9613 16.978 16.488 16.3333 16.488ZM25.3333 24.6667H23.3333V20.9307C23.3333 18.6853 20.6667 18.8553 20.6667 20.9307V24.6667H18.6667V17.3333H20.6667V18.51C21.5973 16.786 25.3333 16.6587 25.3333 20.1607V24.6667Z"
               fill="#333333" />
     </g>
     <defs>
          <clipPath id="clip0_22_3482">
               <rect width="40" height="40" fill="white" />
          </clipPath>
     </defs>
</svg>