<svg width="81" height="63" viewBox="0 0 81 63" fill="none" xmlns="http://www.w3.org/2000/svg">
<path d="M37 63H46.5902V62.2205C44.7552 61.6796 44.2231 60.2998 44.2231 55.3793V41.2197H66.7766V55.3793C66.7766 60.2998 66.1857 61.6796 64.4095 62.2205V62.9997H74V62.2205C72.1639 61.6796 71.6314 60.2998 71.6314 55.3793V28.6204C71.6314 23.6998 72.1639 22.3201 74 21.7792V21H64.4092V21.7792C66.1857 22.3201 66.7766 23.6998 66.7766 28.6204V40.2601H44.2231V28.6204C44.2231 23.6998 44.7552 22.3201 46.5902 21.7792V21H37V21.7792C38.7758 22.3201 39.3683 23.6998 39.3683 28.6204V55.3793C39.3683 60.2998 38.7758 61.6796 37 62.2205V63Z" fill="#2B2B2B"/>
<path d="M34.3615 42C35.5542 42 37.105 41.8805 38 41.584V40.8712C37.7023 40.9302 37.403 40.9302 37.0458 40.9302C35.0177 40.9302 33.825 38.9696 30.9617 31.8417C28.0981 24.5343 26.9647 20.9106 19.6287 19.9603C27.3824 19.0692 31.4387 14.8513 31.4387 9.26701C31.4387 3.98043 27.8597 0 15.7517 0H4V0.77152C5.8501 1.30705 6.3863 2.67339 6.3863 7.54516V34.0388C6.3863 38.9106 5.8498 40.2766 4 40.8122V41.5837H13.6631V40.8122C11.8142 40.2766 11.278 38.9106 11.278 34.0388V20.1391H15.0955C22.2525 20.1391 22.7295 24.2968 26.19 32.4955C28.8136 38.6728 29.7687 42 34.3615 42V42ZM11.278 19.2477V1.00963C12.2319 0.95033 13.1858 0.891029 14.0808 0.891029C22.9087 0.891029 26.3693 5.34678 26.3693 10.6334C26.3693 15.6833 23.1472 19.2477 16.2882 19.2477H11.278Z" fill="#2B2B2B"/>
<path d="M0 38H81V46H0.000303849V38" fill="#F4F4F4"/>
<path d="M6.0168 44C6.57068 44 7.20631 43.7098 7.52466 43.2583V42.2118H6.80647V42.2784C7.04226 42.3395 7.08557 42.4729 7.08557 42.819L7.09098 43.3873C6.95454 43.6657 6.59829 43.888 6.18681 43.888C5.0796 43.888 4.4326 42.7351 4.44315 41.6817C4.4548 40.6567 5.04684 40.1054 5.8357 40.1054C6.47755 40.1054 6.98216 40.485 7.18384 40.964L7.23906 40.9521L7.21795 40.2946C7.00327 40.1505 6.48297 40.0055 5.99541 40.0055C4.82161 40.0055 4 40.9029 4 42.0226C4 43.2198 4.79427 44 6.0168 44V44ZM10.6216 44C11.3839 44 11.9868 43.5763 11.9868 42.4567V40.7524C11.9868 40.2946 12.0418 40.1664 12.2066 40.1172V40.0443H11.5266V40.1172C11.7678 40.1838 11.8988 40.3398 11.8988 40.9747V42.4729C11.8988 43.5645 11.2686 43.8828 10.797 43.8828C10.0842 43.8828 9.51953 43.5098 9.51953 42.4729V40.7524C9.51953 40.2946 9.57449 40.1664 9.73962 40.1172V40.0443H8.85115V40.1172C9.02143 40.1667 9.06988 40.2946 9.06988 40.7524V42.5073C9.06988 43.627 9.83762 44 10.6211 44H10.6216ZM14.3174 43.9439H15.211V43.8721C15.0407 43.8215 14.9912 43.6935 14.9912 43.2369V40.1337H15.2491C15.7418 40.1337 15.9565 40.268 16.1425 40.6688L16.2029 40.6569L16.1704 40.0446H13.3469L13.3138 40.6569L13.3742 40.6688C13.5604 40.268 13.774 40.1337 14.2675 40.1337H14.5364V43.2371C14.5364 43.6938 14.4865 43.8217 14.3174 43.8724V43.9439ZM19.4484 43.9439H20.3363V43.8721C20.1663 43.8215 20.1176 43.6935 20.1176 43.2369V41.9216H22.2062V43.2369C22.2062 43.6935 22.1512 43.8215 21.9871 43.8721V43.9439H22.8745V43.8721C22.7053 43.8215 22.6555 43.6935 22.6555 43.2369V40.7524C22.6555 40.2946 22.7053 40.1664 22.8745 40.1172V40.0443H21.9871V40.1172C22.1512 40.1667 22.2062 40.2946 22.2062 40.7524V41.8325H20.1176V40.7524C20.1176 40.2946 20.1663 40.1664 20.3366 40.1172V40.0443H19.4484V40.1172C19.6133 40.1667 19.6682 40.2946 19.6682 40.7524V43.2369C19.6682 43.6935 19.6133 43.8215 19.4484 43.8721V43.9439ZM24.289 43.9439H26.9921L27.0365 43.2036L26.9761 43.1917C26.7785 43.7098 26.4441 43.8602 25.9176 43.8602H25.2048C25.0462 43.8602 24.9585 43.7708 24.9585 43.6099V41.8988H25.6596C26.2844 41.8988 26.4441 42.0281 26.5097 42.2784H26.5754V41.4369H26.5097C26.4441 41.6872 26.2844 41.8162 25.6596 41.8162H24.9585V40.1279H25.7644C26.3237 40.1279 26.6472 40.2946 26.8386 40.7854L26.8989 40.7684L26.8386 40.0443H24.289V40.1172C24.4541 40.1667 24.5091 40.2946 24.5091 40.7524V43.2369C24.5091 43.6935 24.4541 43.8215 24.289 43.8721V43.9439ZM28.0067 43.9439H28.6263V43.8721C28.4393 43.8322 28.4179 43.6484 28.5597 43.2861L28.8833 42.4729H30.4293L30.7633 43.2916C30.939 43.7098 30.9834 43.8215 30.8132 43.8721V43.9439H31.6632V43.8721C31.5481 43.8215 31.416 43.7098 31.2468 43.2916L29.8973 40L29.4872 40.1893L29.5359 40.3065C29.5801 40.3956 29.5855 40.4677 29.5473 40.5675L28.4666 43.2864C28.2974 43.7098 28.1599 43.8215 28.0064 43.8721L28.0067 43.9439ZM28.9163 42.3901L29.6458 40.5568L30.3965 42.3901H28.9163ZM32.7536 43.9439H35.3032L35.3413 43.3142L35.281 43.3034C35.0896 43.7216 34.8486 43.8547 34.3218 43.8547H33.6694C33.5108 43.8547 33.4231 43.7656 33.4231 43.6044V40.7524C33.4231 40.2946 33.4718 40.1664 33.6421 40.1172V40.0443H32.7536V40.1172C32.9187 40.1667 32.9737 40.2946 32.9737 40.7524V43.2369C32.9737 43.6935 32.9187 43.8215 32.7536 43.8721V43.9439ZM37.4036 43.9439H38.297V43.8721C38.1267 43.8215 38.0771 43.6935 38.0771 43.2369V40.1337H38.3351C38.8278 40.1337 39.0425 40.268 39.2285 40.6688L39.2889 40.6569L39.2564 40.0446H36.4329L36.3998 40.6569L36.4602 40.6688C36.6464 40.268 36.86 40.1337 37.3535 40.1337H37.6224V43.2371C37.6224 43.6938 37.5728 43.8217 37.4036 43.8724V43.9439ZM40.5222 43.9439H41.4104V43.8721C41.2401 43.8215 41.1914 43.6935 41.1914 43.2369V41.9216H43.28V43.2369C43.28 43.6935 43.225 43.8215 43.0612 43.8721V43.9439H43.9483V43.8721C43.7791 43.8215 43.7293 43.6935 43.7293 43.2369V40.7524C43.7293 40.2946 43.7791 40.1664 43.9486 40.1172V40.0443H43.0612V40.1172C43.225 40.1667 43.28 40.2946 43.28 40.7524V41.8325H41.1914V40.7524C41.1914 40.2946 41.2401 40.1664 41.4107 40.1172V40.0443H40.5222V40.1172C40.6873 40.1667 40.742 40.2946 40.742 40.7524V43.2369C40.742 43.6935 40.6871 43.8215 40.5222 43.8721V43.9439ZM49.4478 44C50.0624 44 50.5824 43.844 50.8404 43.699L50.9281 42.9747L50.868 42.9692C50.6533 43.5711 50.1934 43.888 49.6011 43.888C48.4614 43.888 47.836 42.8856 47.8414 41.8377C47.8414 40.7018 48.5161 40.1109 49.3875 40.1109C50.0399 40.1109 50.5602 40.4514 50.7738 40.9576L50.8287 40.9466L50.8076 40.2836C50.593 40.1453 50.0453 40.0055 49.5737 40.0055C48.2857 40.0055 47.3815 40.8858 47.3815 42.0721C47.3815 43.2864 48.1871 44 49.4478 44V44ZM54.2554 44C55.1766 44 56.1959 43.3873 56.1959 42.0107C56.1959 40.6462 55.1818 40 54.2554 40C53.0935 40 52.3044 40.847 52.3044 41.9882C52.3044 43.37 53.3239 44 54.2554 44ZM52.7421 41.6658C52.7096 40.7579 53.198 40.1279 54.0313 40.1279C55.0115 40.1279 55.7308 41.2146 55.7687 42.3783C55.7963 43.2143 55.3626 43.8602 54.486 43.8602C53.5047 43.8602 52.7814 42.7854 52.7424 41.6658H52.7421ZM57.2435 43.9439H57.8634V43.8721C57.6761 43.8322 57.655 43.6484 57.7969 43.2861L58.1204 42.4729H59.6661L60.0004 43.2916C60.1761 43.7098 60.2205 43.8215 60.0503 43.8721V43.9439H60.9003V43.8721C60.7852 43.8215 60.6529 43.7098 60.4837 43.2916L59.1344 40L58.724 40.1893L58.7728 40.3065C58.8172 40.3956 58.8226 40.4677 58.7844 40.5675L57.7037 43.2864C57.5345 43.7098 57.397 43.8215 57.2435 43.8721V43.9439ZM58.1531 42.3901L58.8827 40.5568L59.6336 42.3901H58.1531ZM64.0633 44C64.6778 44 65.1981 43.844 65.4561 43.699L65.5438 42.9747L65.4834 42.9692C65.2688 43.5711 64.8088 43.888 64.2165 43.888C63.0768 43.888 62.4517 42.8856 62.4569 41.8377C62.4569 40.7018 63.1318 40.1109 64.0032 40.1109C64.6556 40.1109 65.1759 40.4514 65.3892 40.9576L65.4444 40.9466L65.4233 40.2836C65.2087 40.1453 64.6607 40.0055 64.1892 40.0055C62.9011 40.0055 61.9972 40.8858 61.9972 42.0721C61.9972 43.2864 62.8028 44 64.0633 44V44ZM66.9139 43.9439H67.8018V43.8721C67.6318 43.8215 67.5831 43.6935 67.5831 43.2369V41.9216H69.6716V43.2369C69.6716 43.6935 69.6167 43.8215 69.4529 43.8721V43.9439H70.34V43.8721C70.1708 43.8215 70.121 43.6935 70.121 43.2369V40.7524C70.121 40.2946 70.1708 40.1664 70.34 40.1172V40.0443H69.4529V40.1172C69.6167 40.1667 69.6716 40.2946 69.6716 40.7524V41.8325H67.5831V40.7524C67.5831 40.2946 67.6318 40.1664 67.8021 40.1172V40.0443H66.9139V40.1172C67.0787 40.1667 67.1337 40.2946 67.1337 40.7524V43.2369C67.1337 43.6935 67.0787 43.8215 66.9139 43.8721V43.9439Z" fill="#2B2B2B"/>
</svg>
