<?xml version="1.0" standalone="no"?>
<!DOCTYPE svg PUBLIC "-//W3C//DTD SVG 20010904//EN"
 "http://www.w3.org/TR/2001/REC-SVG-20010904/DTD/svg10.dtd">
<svg version="1.0" xmlns="http://www.w3.org/2000/svg"
 width="500.000000pt" height="500.000000pt" viewBox="0 0 500.000000 500.000000"
 preserveAspectRatio="xMidYMid meet">

<g transform="translate(0.000000,500.000000) scale(0.100000,-0.100000)"
fill="#000000" stroke="none">
<path d="M3155 3554 c-19 -53 -23 -58 -72 -78 -29 -11 -53 -24 -53 -27 0 -4
24 -15 53 -26 50 -19 53 -22 72 -81 11 -33 23 -63 26 -66 3 -4 14 23 23 58 18
64 18 65 72 87 30 13 54 25 54 29 0 3 -17 12 -37 19 -65 23 -80 37 -94 91 -7
27 -15 50 -19 50 -3 0 -14 -25 -25 -56z"/>
<path d="M3424 3338 c-7 -24 -20 -38 -49 -53 l-40 -19 37 -16 c29 -11 41 -24
49 -50 17 -53 24 -55 38 -10 10 33 20 45 47 56 19 8 34 16 34 19 0 3 -18 12
-39 21 -32 13 -40 22 -45 50 -9 43 -20 43 -32 2z"/>
<path d="M720 3038 l0 -73 19 40 c21 45 54 79 91 94 20 8 13 10 -42 10 l-68 1
0 -72z"/>
<path d="M890 2836 c0 -273 0 -275 -22 -290 -21 -15 -13 -16 102 -16 107 0
121 2 100 13 l-25 13 -3 277 -2 277 -75 0 -75 0 0 -274z"/>
<path d="M1105 3096 c39 -17 70 -52 90 -99 8 -20 17 -37 20 -37 3 0 5 34 5 75
l0 75 -72 0 c-69 -1 -72 -1 -43 -14z"/>
<path d="M1318 3103 c-43 -5 -44 -5 -22 -37 13 -20 15 -61 12 -266 -3 -226 -4
-243 -22 -256 -18 -12 -9 -14 79 -14 94 0 97 1 82 18 -15 16 -17 51 -17 290
l0 272 -37 -2 c-21 -1 -55 -3 -75 -5z"/>
<path d="M2406 3096 c18 -14 19 -29 19 -271 l0 -257 -24 -19 c-23 -19 -22 -19
168 -19 l191 0 0 73 c-1 68 -1 71 -14 42 -26 -58 -94 -105 -152 -105 l-24 0 0
263 c0 221 2 266 16 285 l15 22 -107 0 c-96 0 -106 -2 -88 -14z"/>
<path d="M4128 3103 c-43 -5 -44 -5 -22 -37 13 -20 15 -61 12 -266 -3 -226 -4
-243 -22 -256 -18 -12 -9 -14 79 -14 94 0 97 1 82 18 -15 16 -17 51 -17 290
l0 272 -37 -2 c-21 -1 -55 -3 -75 -5z"/>
<path d="M1480 2941 c-20 -6 -15 -8 23 -8 56 0 78 -15 59 -41 -35 -49 -42 -83
-42 -211 0 -113 -2 -131 -17 -140 -13 -8 9 -10 82 -11 67 0 95 3 85 10 -12 7
-16 43 -20 179 -5 168 -5 171 -31 197 -29 28 -93 40 -139 25z"/>
<path d="M1869 2940 c-135 -40 -183 -236 -86 -347 69 -79 186 -86 260 -15 30
29 38 55 8 28 -27 -25 -85 -24 -118 0 -35 25 -73 98 -73 140 0 26 5 34 23 37
20 4 20 4 -4 6 -26 1 -26 2 -18 52 21 132 100 132 116 1 l6 -51 -39 -4 c-22
-2 3 -4 55 -5 l94 -2 -7 32 c-18 92 -126 156 -217 128z"/>
<path d="M2959 2940 c-135 -40 -183 -236 -86 -347 47 -53 133 -86 102 -39 -36
55 -37 306 -1 361 21 33 51 32 73 -2 14 -21 19 -54 22 -152 3 -130 -6 -187
-37 -217 -16 -17 -15 -17 18 -10 45 9 98 52 124 102 27 50 28 154 3 201 -45
84 -138 128 -218 103z"/>
<path d="M3399 2940 c-135 -40 -183 -236 -86 -347 69 -79 186 -86 260 -15 30
29 38 55 8 28 -27 -25 -85 -24 -118 0 -16 11 -38 41 -51 66 -40 79 -28 210 22
261 19 19 9 21 -35 7z"/>
<path d="M3868 2943 c6 -2 18 -2 25 0 6 3 1 5 -13 5 -14 0 -19 -2 -12 -5z"/>
<path d="M3510 2925 c10 -12 8 -21 -9 -48 -26 -43 -26 -62 -1 -87 27 -27 75
-26 94 2 30 42 11 91 -49 128 -38 24 -52 26 -35 5z"/>
<path d="M3762 2923 c-89 -44 -98 -153 -12 -153 55 0 79 59 43 109 -13 19 -14
28 -4 42 13 23 14 23 -27 2z"/>
<path d="M3977 2894 c15 -28 15 -34 3 -50 -8 -9 -35 -27 -60 -38 l-45 -21 0
-110 c0 -105 -1 -110 -21 -113 -34 -5 -64 41 -64 99 0 40 5 53 34 84 40 42 28
41 -70 -6 -46 -22 -66 -38 -78 -63 -24 -50 -20 -74 18 -112 29 -29 41 -34 80
-34 26 0 60 7 76 15 27 14 30 14 30 -1 0 -15 8 -16 67 -10 79 8 88 12 68 32
-12 12 -15 45 -15 164 0 134 -2 150 -20 171 l-20 24 17 -31z"/>
<path d="M1176 2396 c18 -14 19 -29 19 -271 l0 -257 -24 -19 c-23 -19 -23 -19
100 -18 79 0 116 3 103 9 -12 4 -24 16 -27 24 -4 9 -7 126 -7 259 0 203 3 247
16 265 l15 22 -107 0 c-96 0 -106 -2 -88 -14z"/>
<path d="M1454 2388 c13 -18 16 -62 16 -265 0 -133 -3 -250 -7 -259 -3 -8 -15
-20 -27 -24 -13 -6 24 -9 104 -9 115 -1 123 0 102 15 -22 15 -22 18 -22 279 0
241 2 265 18 274 12 8 -13 10 -91 11 l-108 0 15 -22z"/>
<path d="M2198 2403 c-43 -5 -44 -5 -22 -37 13 -20 15 -61 12 -266 -3 -226 -4
-243 -22 -256 -18 -12 -9 -14 79 -14 94 0 97 1 82 18 -15 16 -17 51 -17 290
l0 272 -37 -2 c-21 -1 -55 -3 -75 -5z"/>
<path d="M2444 2402 c-23 -15 -34 -50 -25 -75 24 -62 121 -43 121 25 0 44 -59
75 -96 50z"/>
<path d="M3324 2402 c-23 -15 -34 -50 -25 -75 24 -62 121 -43 121 25 0 44 -59
75 -96 50z"/>
<path d="M3116 2285 c-15 -12 -47 -28 -70 -35 -22 -7 -35 -15 -28 -17 9 -4 12
-49 12 -179 0 -172 0 -175 25 -199 29 -30 89 -34 135 -10 34 18 39 25 11 18
-10 -2 -26 3 -35 12 -14 15 -16 43 -16 222 1 113 0 206 -2 208 -2 2 -16 -7
-32 -20z"/>
<path d="M1859 2240 c-135 -40 -183 -236 -86 -347 47 -53 133 -86 102 -39 -36
55 -37 306 -1 361 21 33 51 32 73 -2 14 -21 19 -54 22 -152 3 -130 -6 -187
-37 -217 -16 -17 -15 -17 18 -10 45 9 98 52 124 102 27 50 28 154 3 201 -45
84 -138 128 -218 103z"/>
<path d="M2705 2235 c-73 -26 -94 -79 -56 -142 11 -17 48 -54 83 -83 107 -88
127 -123 91 -162 -15 -17 -15 -18 1 -18 26 0 94 38 106 59 15 29 12 78 -7 107
-9 14 -49 52 -90 85 -40 33 -78 69 -84 81 -15 28 -3 67 24 78 22 9 22 9 -3 9
-14 0 -43 -6 -65 -14z"/>
<path d="M3639 2240 c-135 -40 -183 -236 -86 -347 69 -79 186 -86 260 -15 30
29 38 55 8 28 -27 -25 -85 -24 -118 0 -85 61 -102 245 -31 322 23 24 15 27
-33 12z"/>
<path d="M2485 2235 c-5 -2 -32 -6 -58 -10 -44 -6 -47 -8 -30 -20 16 -12 18
-30 18 -180 0 -153 -2 -168 -19 -181 -18 -12 -9 -14 79 -14 94 0 97 1 82 18
-15 16 -17 46 -17 205 l0 187 -22 -1 c-13 0 -27 -2 -33 -4z"/>
<path d="M2842 2226 c14 -9 38 -39 52 -68 l25 -53 1 63 c0 61 0 62 -27 62 -16
0 -39 3 -53 6 l-25 5 27 -15z"/>
<path d="M3365 2235 c-5 -2 -32 -6 -58 -10 -44 -6 -47 -8 -30 -20 16 -12 18
-30 18 -180 0 -153 -2 -168 -19 -181 -18 -12 -9 -14 79 -14 94 0 97 1 82 18
-15 16 -17 46 -17 205 l0 187 -22 -1 c-13 0 -27 -2 -33 -4z"/>
<path d="M3750 2225 c10 -12 8 -21 -9 -48 -26 -43 -26 -62 -1 -87 27 -27 75
-26 94 2 30 42 11 91 -49 128 -38 24 -52 26 -35 5z"/>
<path d="M2656 1979 c-44 -35 -29 -93 34 -128 42 -23 75 -29 46 -8 -17 13 -17
15 3 48 27 44 26 55 -4 84 -29 30 -45 31 -79 4z"/>
<path d="M1871 1407 c-17 -45 -24 -90 -12 -83 6 4 11 14 11 21 0 24 44 1 51
-26 6 -22 7 -21 8 7 1 16 6 35 12 41 17 17 4 39 -31 51 -28 10 -32 9 -39 -11z
m43 -3 c9 -3 16 -15 16 -26 0 -29 -44 -20 -48 10 -3 23 4 27 32 16z"/>
<path d="M3071 1406 c-18 -21 -2 -45 32 -48 41 -4 43 -30 2 -40 -29 -6 -29 -6
5 -5 30 2 35 5 35 27 0 21 -5 26 -33 28 -40 4 -41 32 -2 43 l25 7 -26 1 c-15
1 -32 -5 -38 -13z"/>
<path d="M3011 1395 c0 -5 3 -27 8 -48 l9 -38 -45 37 c-24 20 -46 34 -48 32
-6 -5 16 -91 26 -102 4 -5 4 9 -1 30 -5 21 -7 40 -5 42 1 2 19 -11 38 -27 19
-17 38 -31 42 -31 8 0 -4 79 -16 100 -5 8 -8 11 -8 5z"/>
<path d="M1997 1372 c-33 -36 -12 -102 31 -102 39 1 67 45 53 83 -15 39 -57
49 -84 19z m69 -17 c4 -8 3 -26 0 -40 -5 -20 -13 -25 -36 -25 -23 0 -31 5 -36
25 -4 15 -1 32 6 40 16 19 59 19 66 0z"/>
<path d="M2125 1326 c-4 -25 -5 -51 -2 -58 3 -7 6 -2 6 12 2 43 16 54 30 24
l12 -27 22 21 22 21 -2 -42 c-2 -35 -1 -38 6 -17 5 14 9 40 10 59 l1 35 -29
-28 -28 -27 -13 31 c-19 46 -28 45 -35 -4z"/>
<path d="M2842 1361 c-10 -6 -12 -21 -7 -55 8 -52 24 -65 58 -47 21 10 20 11
-8 8 -41 -3 -47 27 -8 41 l28 10 -26 1 c-41 1 -45 29 -6 40 28 8 29 9 7 10
-14 0 -31 -3 -38 -8z"/>
<path d="M2270 1342 c0 -7 7 -24 16 -37 9 -14 13 -33 9 -45 -4 -11 -2 -20 4
-20 6 0 11 11 11 24 0 14 4 28 10 31 5 3 15 16 21 28 l11 22 -23 -22 -23 -22
-18 27 c-10 15 -18 21 -18 14z"/>
<path d="M2717 1332 c-36 -40 -5 -96 50 -90 22 2 29 9 31 31 3 22 -1 27 -17
27 -12 0 -21 -4 -21 -10 0 -5 6 -9 13 -7 6 1 12 -5 12 -13 0 -19 -32 -25 -50
-10 -18 15 -19 54 -2 68 6 5 23 12 37 15 22 4 21 4 -6 6 -19 0 -37 -6 -47 -17z"/>
<path d="M2520 1315 c0 -21 -5 -25 -30 -25 -23 0 -30 4 -30 20 0 11 -4 20 -10
20 -5 0 -10 -23 -10 -51 0 -31 4 -48 10 -44 6 3 10 13 10 21 0 9 10 14 29 14
25 0 30 -5 34 -27 2 -16 5 0 6 35 0 34 -1 62 -4 62 -3 0 -5 -11 -5 -25z"/>
<path d="M2650 1295 c-5 -45 -7 -50 -30 -50 -22 0 -25 5 -28 43 -2 23 -8 42
-13 42 -10 0 -4 -73 8 -92 8 -14 63 -9 69 6 3 7 4 33 2 57 l-4 44 -4 -50z"/>
</g>
</svg>
