<svg width="81" height="42" viewBox="0 0 81 42" fill="none" xmlns="http://www.w3.org/2000/svg">
<path d="M37 42H46.5902V41.2205C44.7552 40.6796 44.2231 39.2998 44.2231 34.3793V20.2197H66.7766V34.3793C66.7766 39.2998 66.1857 40.6796 64.4095 41.2205V41.9997H74V41.2205C72.1639 40.6796 71.6314 39.2998 71.6314 34.3793V7.62039C71.6314 2.69985 72.1639 1.32013 74 0.77924V0H64.4092V0.77924C66.1857 1.32013 66.7766 2.69985 66.7766 7.62039V19.2601H44.2231V7.62039C44.2231 2.69985 44.7552 1.32013 46.5902 0.77924V0H37V0.77924C38.7758 1.32013 39.3683 2.69985 39.3683 7.62039V34.3793C39.3683 39.2998 38.7758 40.6796 37 41.2205V42Z" fill="#2B2B2B"/>
<path d="M36.3615 42C37.5542 42 39.105 41.8805 40 41.584V40.8712C39.7023 40.9302 39.403 40.9302 39.0458 40.9302C37.0177 40.9302 35.825 38.9696 32.9617 31.8417C30.0981 24.5343 28.9647 20.9106 21.6287 19.9603C29.3824 19.0692 33.4387 14.8513 33.4387 9.26701C33.4387 3.98043 29.8597 0 17.7517 0H6V0.77152C7.8501 1.30705 8.3863 2.67339 8.3863 7.54516V34.0388C8.3863 38.9106 7.8498 40.2766 6 40.8122V41.5837H15.6631V40.8122C13.8142 40.2766 13.278 38.9106 13.278 34.0388V20.1391H17.0955C24.2525 20.1391 24.7295 24.2968 28.19 32.4955C30.8136 38.6728 31.7687 42 36.3615 42ZM13.278 19.2477V1.00963C14.2319 0.95033 15.1858 0.891029 16.0808 0.891029C24.9087 0.891029 28.3693 5.34678 28.3693 10.6334C28.3693 15.6833 25.1472 19.2477 18.2882 19.2477H13.278Z" fill="#2B2B2B"/>
<path d="M0 17H81V25H0.000303849V17" fill="#F4F4F4"/>
<path d="M6.0168 23C6.57068 23 7.20631 22.7098 7.52466 22.2583V21.2118H6.80647V21.2784C7.04226 21.3395 7.08557 21.4729 7.08557 21.819L7.09098 22.3873C6.95454 22.6657 6.59829 22.888 6.18681 22.888C5.0796 22.888 4.4326 21.7351 4.44315 20.6817C4.4548 19.6567 5.04684 19.1054 5.8357 19.1054C6.47755 19.1054 6.98216 19.485 7.18384 19.964L7.23906 19.9521L7.21795 19.2946C7.00327 19.1505 6.48297 19.0055 5.99541 19.0055C4.82161 19.0055 4 19.9029 4 21.0226C4 22.2198 4.79427 23 6.0168 23V23ZM10.6216 23C11.3839 23 11.9868 22.5763 11.9868 21.4567V19.7524C11.9868 19.2946 12.0418 19.1664 12.2066 19.1172V19.0443H11.5266V19.1172C11.7678 19.1838 11.8988 19.3398 11.8988 19.9747V21.4729C11.8988 22.5645 11.2686 22.8828 10.797 22.8828C10.0842 22.8828 9.51953 22.5098 9.51953 21.4729V19.7524C9.51953 19.2946 9.57449 19.1664 9.73962 19.1172V19.0443H8.85115V19.1172C9.02143 19.1667 9.06988 19.2946 9.06988 19.7524V21.5073C9.06988 22.627 9.83762 23 10.6211 23H10.6216ZM14.3174 22.9439H15.211V22.8721C15.0407 22.8215 14.9912 22.6935 14.9912 22.2369V19.1337H15.2491C15.7418 19.1337 15.9565 19.268 16.1425 19.6688L16.2029 19.6569L16.1704 19.0446H13.3469L13.3138 19.6569L13.3742 19.6688C13.5604 19.268 13.774 19.1337 14.2675 19.1337H14.5364V22.2371C14.5364 22.6938 14.4865 22.8217 14.3174 22.8724V22.9439ZM19.4484 22.9439H20.3363V22.8721C20.1663 22.8215 20.1176 22.6935 20.1176 22.2369V20.9216H22.2062V22.2369C22.2062 22.6935 22.1512 22.8215 21.9871 22.8721V22.9439H22.8745V22.8721C22.7053 22.8215 22.6555 22.6935 22.6555 22.2369V19.7524C22.6555 19.2946 22.7053 19.1664 22.8745 19.1172V19.0443H21.9871V19.1172C22.1512 19.1667 22.2062 19.2946 22.2062 19.7524V20.8325H20.1176V19.7524C20.1176 19.2946 20.1663 19.1664 20.3366 19.1172V19.0443H19.4484V19.1172C19.6133 19.1667 19.6682 19.2946 19.6682 19.7524V22.2369C19.6682 22.6935 19.6133 22.8215 19.4484 22.8721V22.9439ZM24.289 22.9439H26.9921L27.0365 22.2036L26.9761 22.1917C26.7785 22.7098 26.4441 22.8602 25.9176 22.8602H25.2048C25.0462 22.8602 24.9585 22.7708 24.9585 22.6099V20.8988H25.6596C26.2844 20.8988 26.4441 21.0281 26.5097 21.2784H26.5754V20.4369H26.5097C26.4441 20.6872 26.2844 20.8162 25.6596 20.8162H24.9585V19.1279H25.7644C26.3237 19.1279 26.6472 19.2946 26.8386 19.7854L26.8989 19.7684L26.8386 19.0443H24.289V19.1172C24.4541 19.1667 24.5091 19.2946 24.5091 19.7524V22.2369C24.5091 22.6935 24.4541 22.8215 24.289 22.8721V22.9439ZM28.0067 22.9439H28.6263V22.8721C28.4393 22.8322 28.4179 22.6484 28.5597 22.2861L28.8833 21.4729H30.4293L30.7633 22.2916C30.939 22.7098 30.9834 22.8215 30.8132 22.8721V22.9439H31.6632V22.8721C31.5481 22.8215 31.416 22.7098 31.2468 22.2916L29.8973 19L29.4872 19.1893L29.5359 19.3065C29.5801 19.3956 29.5855 19.4677 29.5473 19.5675L28.4666 22.2864C28.2974 22.7098 28.1599 22.8215 28.0064 22.8721L28.0067 22.9439ZM28.9163 21.3901L29.6458 19.5568L30.3965 21.3901H28.9163ZM32.7536 22.9439H35.3032L35.3413 22.3142L35.281 22.3034C35.0896 22.7216 34.8486 22.8547 34.3218 22.8547H33.6694C33.5108 22.8547 33.4231 22.7656 33.4231 22.6044V19.7524C33.4231 19.2946 33.4718 19.1664 33.6421 19.1172V19.0443H32.7536V19.1172C32.9187 19.1667 32.9737 19.2946 32.9737 19.7524V22.2369C32.9737 22.6935 32.9187 22.8215 32.7536 22.8721V22.9439ZM37.4036 22.9439H38.297V22.8721C38.1267 22.8215 38.0771 22.6935 38.0771 22.2369V19.1337H38.3351C38.8278 19.1337 39.0425 19.268 39.2285 19.6688L39.2889 19.6569L39.2564 19.0446H36.4329L36.3998 19.6569L36.4602 19.6688C36.6464 19.268 36.86 19.1337 37.3535 19.1337H37.6224V22.2371C37.6224 22.6938 37.5728 22.8217 37.4036 22.8724V22.9439ZM40.5222 22.9439H41.4104V22.8721C41.2401 22.8215 41.1914 22.6935 41.1914 22.2369V20.9216H43.28V22.2369C43.28 22.6935 43.225 22.8215 43.0612 22.8721V22.9439H43.9483V22.8721C43.7791 22.8215 43.7293 22.6935 43.7293 22.2369V19.7524C43.7293 19.2946 43.7791 19.1664 43.9486 19.1172V19.0443H43.0612V19.1172C43.225 19.1667 43.28 19.2946 43.28 19.7524V20.8325H41.1914V19.7524C41.1914 19.2946 41.2401 19.1664 41.4107 19.1172V19.0443H40.5222V19.1172C40.6873 19.1667 40.742 19.2946 40.742 19.7524V22.2369C40.742 22.6935 40.6871 22.8215 40.5222 22.8721V22.9439ZM49.4478 23C50.0624 23 50.5824 22.844 50.8404 22.699L50.9281 21.9747L50.868 21.9692C50.6533 22.5711 50.1934 22.888 49.6011 22.888C48.4614 22.888 47.836 21.8856 47.8414 20.8377C47.8414 19.7018 48.5161 19.1109 49.3875 19.1109C50.0399 19.1109 50.5602 19.4514 50.7738 19.9576L50.8287 19.9466L50.8076 19.2836C50.593 19.1453 50.0453 19.0055 49.5737 19.0055C48.2857 19.0055 47.3815 19.8858 47.3815 21.0721C47.3815 22.2864 48.1871 23 49.4478 23V23ZM54.2554 23C55.1766 23 56.1959 22.3873 56.1959 21.0107C56.1959 19.6462 55.1818 19 54.2554 19C53.0935 19 52.3044 19.847 52.3044 20.9882C52.3044 22.37 53.3239 23 54.2554 23ZM52.7421 20.6658C52.7096 19.7579 53.198 19.1279 54.0313 19.1279C55.0115 19.1279 55.7308 20.2146 55.7687 21.3783C55.7963 22.2143 55.3626 22.8602 54.486 22.8602C53.5047 22.8602 52.7814 21.7854 52.7424 20.6658H52.7421ZM57.2435 22.9439H57.8634V22.8721C57.6761 22.8322 57.655 22.6484 57.7969 22.2861L58.1204 21.4729H59.6661L60.0004 22.2916C60.1761 22.7098 60.2205 22.8215 60.0503 22.8721V22.9439H60.9003V22.8721C60.7852 22.8215 60.6529 22.7098 60.4837 22.2916L59.1344 19L58.724 19.1893L58.7728 19.3065C58.8172 19.3956 58.8226 19.4677 58.7844 19.5675L57.7037 22.2864C57.5345 22.7098 57.397 22.8215 57.2435 22.8721V22.9439ZM58.1531 21.3901L58.8827 19.5568L59.6336 21.3901H58.1531ZM64.0633 23C64.6778 23 65.1981 22.844 65.4561 22.699L65.5438 21.9747L65.4834 21.9692C65.2688 22.5711 64.8088 22.888 64.2165 22.888C63.0768 22.888 62.4517 21.8856 62.4569 20.8377C62.4569 19.7018 63.1318 19.1109 64.0032 19.1109C64.6556 19.1109 65.1759 19.4514 65.3892 19.9576L65.4444 19.9466L65.4233 19.2836C65.2087 19.1453 64.6607 19.0055 64.1892 19.0055C62.9011 19.0055 61.9972 19.8858 61.9972 21.0721C61.9972 22.2864 62.8028 23 64.0633 23V23ZM66.9139 22.9439H67.8018V22.8721C67.6318 22.8215 67.5831 22.6935 67.5831 22.2369V20.9216H69.6716V22.2369C69.6716 22.6935 69.6167 22.8215 69.4529 22.8721V22.9439H70.34V22.8721C70.1708 22.8215 70.121 22.6935 70.121 22.2369V19.7524C70.121 19.2946 70.1708 19.1664 70.34 19.1172V19.0443H69.4529V19.1172C69.6167 19.1667 69.6716 19.2946 69.6716 19.7524V20.8325H67.5831V19.7524C67.5831 19.2946 67.6318 19.1664 67.8021 19.1172V19.0443H66.9139V19.1172C67.0787 19.1667 67.1337 19.2946 67.1337 19.7524V22.2369C67.1337 22.6935 67.0787 22.8215 66.9139 22.8721V22.9439Z" fill="#2B2B2B"/>
</svg>
