<svg width="51" height="36" viewBox="0 0 51 36" fill="none" xmlns="http://www.w3.org/2000/svg">
<path d="M5.11709e-06 21.0416C5.59559e-06 15.5682 1.68551 10.9104 5.05651 7.0682C8.42751 3.22599 13.2303 0.869912 19.4648 -2.18304e-05L19.4648 5.00211C16.8913 5.50957 14.5896 6.28889 12.5597 7.34006C10.5299 8.42748 8.93497 9.78675 7.77506 11.4179C6.5789 13.049 5.98082 14.9158 5.98082 17.0181C5.98082 18.7942 6.61514 19.6823 7.8838 19.6823C8.24627 19.6823 8.9531 19.5917 10.0043 19.4104C11.0192 19.2292 11.7985 19.1386 12.3422 19.1386C14.2996 19.1386 16.1119 19.9179 17.7793 21.4765C19.4105 23.0714 20.226 25.0469 20.226 27.403C20.226 29.9765 19.3561 32.0426 17.6162 33.6013C15.8401 35.1599 13.774 35.9392 11.4179 35.9392C9.71429 35.9392 7.99254 35.3774 6.25267 34.2537C4.47655 33.1663 2.99041 31.4808 1.79425 29.1972C0.598084 26.9136 4.8414e-06 24.1951 5.11709e-06 21.0416ZM30.7196 21.0416C30.7196 17.4168 31.4808 14.1183 33.0032 11.146C34.4893 8.17375 36.7186 5.70893 39.6908 3.75158C42.6269 1.79422 46.1247 0.543689 50.1844 -1.91448e-05L50.1844 5.00211C47.6109 5.50957 45.3092 6.28889 43.2793 7.34006C41.2495 8.42748 39.6546 9.78676 38.4947 11.4179C37.2985 13.049 36.7004 14.9158 36.7004 17.0181C36.7004 18.7942 37.3348 19.6823 38.6034 19.6823C38.9659 19.6823 39.6546 19.5917 40.6695 19.4104C41.6482 19.2292 42.4456 19.1386 43.0618 19.1386C45.0192 19.1386 46.8316 19.9179 48.4989 21.4765C50.1663 23.0714 51 25.0469 51 27.403C51 29.9765 50.1301 32.0426 48.3902 33.6013C46.6141 35.1599 44.548 35.9392 42.1919 35.9392C40.4883 35.9392 38.7484 35.3774 36.9723 34.2537C35.1962 33.1663 33.71 31.4808 32.5139 29.1972C31.3177 26.9136 30.7196 24.1951 30.7196 21.0416Z" fill="#333333"/>
</svg>
