<svg xmlns="http://www.w3.org/2000/svg" width="500" viewBox="0 0 375 375" height="500" version="1.0"><path d="M181.305 268.166h31.808v-2.551c-6.086-1.77-7.851-6.285-7.851-22.387v-46.336h74.804v46.336c0 16.102-1.96 20.617-7.851 22.387v2.55h31.809v-2.55c-6.09-1.77-7.856-6.285-7.856-22.387v-87.566c0-16.102 1.766-20.617 7.856-22.387v-2.55h-31.81v2.55c5.892 1.77 7.852 6.285 7.852 22.387v38.09h-74.804v-38.09c0-16.102 1.765-20.617 7.851-22.387v-2.55h-31.808v2.55c5.89 1.77 7.855 6.285 7.855 22.387v87.566c0 16.102-1.965 20.617-7.855 22.387zm0 0" fill="#2b2b2b"/><path d="M203.355 227.33c3.926 0 9.031-.395 11.977-1.375v-2.356c-.98.195-1.965.195-3.141.195-6.676 0-10.602-6.48-20.027-30.039-9.426-24.152-13.157-36.129-37.305-39.27 25.523-2.945 38.875-16.886 38.875-35.343 0-17.473-11.781-30.629-51.637-30.629h-38.683v2.55c6.09 1.77 7.855 6.286 7.855 22.388v87.566c0 16.102-1.766 20.617-7.855 22.387v2.55h31.808v-2.55c-6.086-1.77-7.851-6.285-7.851-22.387v-45.941h12.566c23.559 0 25.129 13.742 36.52 40.84 8.636 20.417 11.78 31.414 26.898 31.414zm-75.984-75.2V91.85c3.14-.196 6.28-.392 9.226-.392 29.059 0 40.45 14.727 40.45 32.2 0 16.691-10.606 28.472-33.184 28.472zm0 0" fill="#2b2b2b"/><path fill="#f4f4f4" d="M54.219 199.258h266.433v29.105H54.22v-29.105"/><path d="M72.44 219.264c2.046 0 4.394-1.055 5.57-2.696v-3.804h-2.653v.242c.871.222 1.031.707 1.031 1.965l.02 2.066c-.504 1.012-1.82 1.82-3.34 1.82-4.09 0-6.48-4.191-6.441-8.02.043-3.726 2.23-5.73 5.144-5.73 2.371 0 4.235 1.38 4.98 3.121l.204-.043-.078-2.39c-.793-.524-2.715-1.051-4.516-1.051-4.336 0-7.371 3.262-7.371 7.332 0 4.352 2.934 7.188 7.45 7.188zM89.45 219.264c2.816 0 5.043-1.54 5.043-5.61v-6.195c0-1.664.203-2.13.812-2.309v-.265h-2.512v.265c.891.242 1.375.809 1.375 3.117v5.446c0 3.968-2.328 5.125-4.07 5.125-2.633 0-4.719-1.356-4.719-5.125v-6.254c0-1.664.203-2.13.813-2.309v-.265H82.91v.265c.629.18.808.645.808 2.309v6.379c0 4.07 2.836 5.426 5.73 5.426zM103.102 219.06h3.301v-.261c-.629-.184-.812-.649-.812-2.309V205.21h.953c1.82 0 2.613.488 3.3 1.945l.223-.043-.12-2.226h-10.43l-.122 2.226.223.043c.688-1.457 1.477-1.945 3.3-1.945h.993v11.281c0 1.66-.184 2.125-.809 2.309zM122.056 219.06h3.28v-.261c-.628-.184-.808-.649-.808-2.309v-4.781h7.715v4.781c0 1.66-.203 2.125-.809 2.309v.261h3.278v-.261c-.625-.184-.809-.649-.809-2.309v-9.031c0-1.664.184-2.13.809-2.309v-.265h-3.278v.265c.606.18.809.645.809 2.309v3.926h-7.715v-3.926c0-1.664.18-2.13.809-2.309v-.265h-3.281v.265c.609.18.812.645.812 2.309v9.031c0 1.66-.203 2.125-.812 2.309zM139.937 219.06h9.985l.164-2.691-.223-.043c-.73 1.883-1.965 2.43-3.91 2.43h-2.633c-.586 0-.91-.325-.91-.91v-6.22H145c2.308 0 2.898.47 3.14 1.38h.243v-3.059h-.243c-.242.91-.832 1.379-3.14 1.379h-2.59v-6.137h2.977c2.066 0 3.261.606 3.968 2.39l.223-.062-.223-2.632h-9.418v.265c.61.18.813.645.813 2.309v9.031c0 1.66-.203 2.125-.813 2.309zM153.67 219.06h2.289v-.261c-.691-.145-.77-.813-.246-2.13l1.195-2.956h5.711l1.234 2.976c.649 1.52.813 1.926.184 2.11v.261h3.14v-.261c-.425-.184-.913-.59-1.538-2.11l-4.985-11.965-1.515.688.18.426c.163.324.183.586.042.949l-3.992 9.883c-.625 1.539-1.133 1.945-1.7 2.129zm3.36-5.648 2.695-6.664 2.773 6.664zM171.205 219.06h9.418l.141-2.289-.223-.039c-.707 1.52-1.597 2.004-3.543 2.004h-2.41c-.586 0-.91-.324-.91-.91v-10.367c0-1.664.18-2.13.809-2.309v-.265h-3.282v.265c.61.18.813.645.813 2.309v9.031c0 1.66-.203 2.125-.813 2.309zM188.382 219.06h3.3v-.261c-.629-.184-.812-.649-.812-2.309V205.21h.953c1.82 0 2.613.488 3.3 1.945l.223-.043-.12-2.226h-10.43l-.122 2.226.223.043c.688-1.457 1.477-1.945 3.3-1.945h.993v11.281c0 1.66-.183 2.125-.808 2.309zM199.902 219.06h3.281v-.261c-.629-.184-.809-.649-.809-2.309v-4.781h7.715v4.781c0 1.66-.203 2.125-.808 2.309v.261h3.277v-.261c-.625-.184-.809-.649-.809-2.309v-9.031c0-1.664.184-2.13.81-2.309v-.265h-3.278v.265c.605.18.808.645.808 2.309v3.926h-7.715v-3.926c0-1.664.18-2.13.81-2.309v-.265h-3.282v.265c.61.18.812.645.812 2.309v9.031c0 1.66-.203 2.125-.812 2.309zM232.873 219.264c2.27 0 4.191-.567 5.144-1.094l.324-2.633-.222-.02c-.793 2.188-2.492 3.34-4.68 3.34-4.21 0-6.52-3.644-6.5-7.453 0-4.129 2.492-6.277 5.711-6.277 2.41 0 4.332 1.238 5.121 3.078l.203-.04-.078-2.41c-.793-.503-2.816-1.011-4.558-1.011-4.758 0-8.098 3.2-8.098 7.512 0 4.414 2.976 7.008 7.633 7.008zM250.632 219.264c3.403 0 7.168-2.227 7.168-7.231 0-4.96-3.746-7.309-7.168-7.309-4.292 0-7.207 3.079-7.207 7.227 0 5.023 3.766 7.313 7.207 7.313zm-5.59-8.485c-.12-3.3 1.684-5.59 4.762-5.59 3.621 0 6.278 3.95 6.418 8.18.102 3.039-1.5 5.387-4.738 5.387-3.625 0-6.297-3.907-6.441-7.977zM261.67 219.06h2.29v-.261c-.692-.145-.77-.813-.246-2.13l1.195-2.956h5.71l1.235 2.976c.649 1.52.813 1.926.184 2.11v.261h3.14v-.261c-.425-.184-.914-.59-1.539-2.11l-4.984-11.965-1.516.688.18.426c.164.324.184.586.043.949l-3.992 9.883c-.625 1.539-1.133 1.945-1.7 2.129zm3.36-5.648 2.695-6.664 2.774 6.664zM286.862 219.264c2.27 0 4.192-.567 5.145-1.094l.324-2.633-.223-.02c-.793 2.188-2.492 3.34-4.68 3.34-4.21 0-6.519-3.644-6.5-7.453 0-4.129 2.493-6.277 5.712-6.277 2.41 0 4.332 1.238 5.12 3.078l.204-.04-.078-2.41c-.793-.503-2.817-1.011-4.559-1.011-4.758 0-8.097 3.2-8.097 7.512 0 4.414 2.976 7.008 7.632 7.008zM297.392 219.06h3.28v-.261c-.628-.184-.808-.649-.808-2.309v-4.781h7.715v4.781c0 1.66-.203 2.125-.808 2.309v.261h3.277v-.261c-.625-.184-.809-.649-.809-2.309v-9.031c0-1.664.184-2.13.809-2.309v-.265h-3.277v.265c.605.18.808.645.808 2.309v3.926h-7.715v-3.926c0-1.664.18-2.13.809-2.309v-.265h-3.281v.265c.609.18.812.645.812 2.309v9.031c0 1.66-.203 2.125-.812 2.309zm0 0" fill="#2b2b2b"/></svg>