<svg xmlns="http://www.w3.org/2000/svg" xmlns:xlink="http://www.w3.org/1999/xlink" width="500" zoomAndPan="magnify" viewBox="0 0 375 374.999991" height="500" preserveAspectRatio="xMidYMid meet" version="1.0"><defs><g/></defs><g fill="#2b2b2b" fill-opacity="1"><g transform="translate(171.29306, 268.165667)"><g><path d="M 10.011719 0 L 41.820312 0 L 41.820312 -2.550781 C 35.734375 -4.320312 33.96875 -8.835938 33.96875 -24.9375 L 33.96875 -71.273438 L 108.773438 -71.273438 L 108.773438 -24.9375 C 108.773438 -8.835938 106.8125 -4.320312 100.921875 -2.550781 L 100.921875 0 L 132.730469 0 L 132.730469 -2.550781 C 126.640625 -4.320312 124.875 -8.835938 124.875 -24.9375 L 124.875 -112.503906 C 124.875 -128.605469 126.640625 -133.121094 132.730469 -134.890625 L 132.730469 -137.441406 L 100.921875 -137.441406 L 100.921875 -134.890625 C 106.8125 -133.121094 108.773438 -128.605469 108.773438 -112.503906 L 108.773438 -74.414062 L 33.96875 -74.414062 L 33.96875 -112.503906 C 33.96875 -128.605469 35.734375 -133.121094 41.820312 -134.890625 L 41.820312 -137.441406 L 10.011719 -137.441406 L 10.011719 -134.890625 C 15.902344 -133.121094 17.867188 -128.605469 17.867188 -112.503906 L 17.867188 -24.9375 C 17.867188 -8.835938 15.902344 -4.320312 10.011719 -2.550781 Z M 10.011719 0 "/></g></g></g><g fill="#2b2b2b" fill-opacity="1"><g transform="translate(93.401849, 225.954545)"><g><path d="M 109.953125 1.375 C 113.878906 1.375 118.984375 0.980469 121.929688 0 L 121.929688 -2.355469 C 120.949219 -2.160156 119.964844 -2.160156 118.789062 -2.160156 C 112.113281 -2.160156 108.1875 -8.640625 98.761719 -32.199219 C 89.335938 -56.351562 85.605469 -68.328125 61.457031 -71.46875 C 86.980469 -74.414062 100.332031 -88.355469 100.332031 -106.8125 C 100.332031 -124.285156 88.550781 -137.441406 48.695312 -137.441406 L 10.011719 -137.441406 L 10.011719 -134.890625 C 16.101562 -133.121094 17.867188 -128.605469 17.867188 -112.503906 L 17.867188 -24.9375 C 17.867188 -8.835938 16.101562 -4.320312 10.011719 -2.550781 L 10.011719 0 L 41.820312 0 L 41.820312 -2.550781 C 35.734375 -4.320312 33.96875 -8.835938 33.96875 -24.9375 L 33.96875 -70.878906 L 46.535156 -70.878906 C 70.09375 -70.878906 71.664062 -57.136719 83.054688 -30.039062 C 91.691406 -9.621094 94.835938 1.375 109.953125 1.375 Z M 33.96875 -73.824219 L 33.96875 -134.105469 C 37.109375 -134.300781 40.25 -134.496094 43.195312 -134.496094 C 72.253906 -134.496094 83.644531 -119.769531 83.644531 -102.296875 C 83.644531 -85.605469 73.039062 -73.824219 50.460938 -73.824219 Z M 33.96875 -73.824219 "/></g></g></g><path fill="#f4f4f4" d="M 54.21875 199.257812 L 320.652344 199.257812 L 320.652344 228.363281 L 54.21875 228.363281 L 54.21875 199.257812 " fill-opacity="1" fill-rule="nonzero"/><g fill="#2b2b2b" fill-opacity="1"><g transform="translate(63.935281, 219.060382)"><g><path d="M 8.503906 0.203125 C 10.550781 0.203125 12.898438 -0.851562 14.074219 -2.492188 L 14.074219 -6.296875 L 11.421875 -6.296875 L 11.421875 -6.054688 C 12.292969 -5.832031 12.453125 -5.347656 12.453125 -4.089844 L 12.472656 -2.023438 C 11.96875 -1.011719 10.652344 -0.203125 9.132812 -0.203125 C 5.042969 -0.203125 2.652344 -4.394531 2.691406 -8.222656 C 2.734375 -11.949219 4.921875 -13.953125 7.835938 -13.953125 C 10.207031 -13.953125 12.070312 -12.574219 12.816406 -10.832031 L 13.019531 -10.875 L 12.941406 -13.265625 C 12.148438 -13.789062 10.226562 -14.316406 8.425781 -14.316406 C 4.089844 -14.316406 1.054688 -11.054688 1.054688 -6.984375 C 1.054688 -2.632812 3.988281 0.203125 8.503906 0.203125 Z M 8.503906 0.203125 "/></g></g></g><g fill="#2b2b2b" fill-opacity="1"><g transform="translate(82.141087, 219.060382)"><g><path d="M 7.308594 0.203125 C 10.125 0.203125 12.351562 -1.335938 12.351562 -5.40625 L 12.351562 -11.601562 C 12.351562 -13.265625 12.554688 -13.730469 13.164062 -13.910156 L 13.164062 -14.175781 L 10.652344 -14.175781 L 10.652344 -13.910156 C 11.542969 -13.667969 12.027344 -13.101562 12.027344 -10.792969 L 12.027344 -5.347656 C 12.027344 -1.378906 9.699219 -0.222656 7.957031 -0.222656 C 5.324219 -0.222656 3.238281 -1.578125 3.238281 -5.347656 L 3.238281 -11.601562 C 3.238281 -13.265625 3.441406 -13.730469 4.050781 -13.910156 L 4.050781 -14.175781 L 0.769531 -14.175781 L 0.769531 -13.910156 C 1.398438 -13.730469 1.578125 -13.265625 1.578125 -11.601562 L 1.578125 -5.222656 C 1.578125 -1.152344 4.414062 0.203125 7.308594 0.203125 Z M 7.308594 0.203125 "/></g></g></g><g fill="#2b2b2b" fill-opacity="1"><g transform="translate(99.071141, 219.060382)"><g><path d="M 4.03125 0 L 7.332031 0 L 7.332031 -0.261719 C 6.703125 -0.445312 6.519531 -0.910156 6.519531 -2.570312 L 6.519531 -13.851562 L 7.472656 -13.851562 C 9.292969 -13.851562 10.085938 -13.363281 10.773438 -11.90625 L 10.996094 -11.949219 L 10.875 -14.175781 L 0.445312 -14.175781 L 0.324219 -11.949219 L 0.546875 -11.90625 C 1.234375 -13.363281 2.023438 -13.851562 3.847656 -13.851562 L 4.839844 -13.851562 L 4.839844 -2.570312 C 4.839844 -0.910156 4.65625 -0.445312 4.03125 -0.261719 Z M 4.03125 0 "/></g></g></g><g fill="#2b2b2b" fill-opacity="1"><g transform="translate(113.591455, 219.060382)"><g/></g></g><g fill="#2b2b2b" fill-opacity="1"><g transform="translate(121.024278, 219.060382)"><g><path d="M 1.03125 0 L 4.3125 0 L 4.3125 -0.261719 C 3.683594 -0.445312 3.503906 -0.910156 3.503906 -2.570312 L 3.503906 -7.351562 L 11.21875 -7.351562 L 11.21875 -2.570312 C 11.21875 -0.910156 11.015625 -0.445312 10.410156 -0.261719 L 10.410156 0 L 13.6875 0 L 13.6875 -0.261719 C 13.0625 -0.445312 12.878906 -0.910156 12.878906 -2.570312 L 12.878906 -11.601562 C 12.878906 -13.265625 13.0625 -13.730469 13.6875 -13.910156 L 13.6875 -14.175781 L 10.410156 -14.175781 L 10.410156 -13.910156 C 11.015625 -13.730469 11.21875 -13.265625 11.21875 -11.601562 L 11.21875 -7.675781 L 3.503906 -7.675781 L 3.503906 -11.601562 C 3.503906 -13.265625 3.683594 -13.730469 4.3125 -13.910156 L 4.3125 -14.175781 L 1.03125 -14.175781 L 1.03125 -13.910156 C 1.640625 -13.730469 1.84375 -13.265625 1.84375 -11.601562 L 1.84375 -2.570312 C 1.84375 -0.910156 1.640625 -0.445312 1.03125 -0.261719 Z M 1.03125 0 "/></g></g></g><g fill="#2b2b2b" fill-opacity="1"><g transform="translate(138.906082, 219.060382)"><g><path d="M 1.03125 0 L 11.015625 0 L 11.179688 -2.691406 L 10.957031 -2.734375 C 10.226562 -0.851562 8.992188 -0.304688 7.046875 -0.304688 L 4.414062 -0.304688 C 3.828125 -0.304688 3.503906 -0.628906 3.503906 -1.214844 L 3.503906 -7.433594 L 6.09375 -7.433594 C 8.402344 -7.433594 8.992188 -6.964844 9.234375 -6.054688 L 9.476562 -6.054688 L 9.476562 -9.113281 L 9.234375 -9.113281 C 8.992188 -8.203125 8.402344 -7.734375 6.09375 -7.734375 L 3.503906 -7.734375 L 3.503906 -13.871094 L 6.480469 -13.871094 C 8.546875 -13.871094 9.742188 -13.265625 10.449219 -11.480469 L 10.671875 -11.542969 L 10.449219 -14.175781 L 1.03125 -14.175781 L 1.03125 -13.910156 C 1.640625 -13.730469 1.84375 -13.265625 1.84375 -11.601562 L 1.84375 -2.570312 C 1.84375 -0.910156 1.640625 -0.445312 1.03125 -0.261719 Z M 1.03125 0 "/></g></g></g><g fill="#2b2b2b" fill-opacity="1"><g transform="translate(154.013643, 219.060382)"><g><path d="M -0.34375 0 L 1.945312 0 L 1.945312 -0.261719 C 1.253906 -0.40625 1.175781 -1.074219 1.699219 -2.390625 L 2.894531 -5.347656 L 8.605469 -5.347656 L 9.839844 -2.371094 C 10.488281 -0.851562 10.652344 -0.445312 10.023438 -0.261719 L 10.023438 0 L 13.164062 0 L 13.164062 -0.261719 C 12.738281 -0.445312 12.25 -0.851562 11.625 -2.371094 L 6.640625 -14.335938 L 5.125 -13.648438 L 5.304688 -13.222656 C 5.46875 -12.898438 5.488281 -12.636719 5.347656 -12.273438 L 1.355469 -2.390625 C 0.730469 -0.851562 0.222656 -0.445312 -0.34375 -0.261719 Z M 3.015625 -5.648438 L 5.710938 -12.3125 L 8.484375 -5.648438 Z M 3.015625 -5.648438 "/></g></g></g><g fill="#2b2b2b" fill-opacity="1"><g transform="translate(170.174199, 219.060382)"><g><path d="M 1.03125 0 L 10.449219 0 L 10.589844 -2.289062 L 10.367188 -2.328125 C 9.660156 -0.808594 8.769531 -0.324219 6.824219 -0.324219 L 4.414062 -0.324219 C 3.828125 -0.324219 3.503906 -0.648438 3.503906 -1.234375 L 3.503906 -11.601562 C 3.503906 -13.265625 3.683594 -13.730469 4.3125 -13.910156 L 4.3125 -14.175781 L 1.03125 -14.175781 L 1.03125 -13.910156 C 1.640625 -13.730469 1.84375 -13.265625 1.84375 -11.601562 L 1.84375 -2.570312 C 1.84375 -0.910156 1.640625 -0.445312 1.03125 -0.261719 Z M 1.03125 0 "/></g></g></g><g fill="#2b2b2b" fill-opacity="1"><g transform="translate(184.350269, 219.060382)"><g><path d="M 4.03125 0 L 7.332031 0 L 7.332031 -0.261719 C 6.703125 -0.445312 6.519531 -0.910156 6.519531 -2.570312 L 6.519531 -13.851562 L 7.472656 -13.851562 C 9.292969 -13.851562 10.085938 -13.363281 10.773438 -11.90625 L 10.996094 -11.949219 L 10.875 -14.175781 L 0.445312 -14.175781 L 0.324219 -11.949219 L 0.546875 -11.90625 C 1.234375 -13.363281 2.023438 -13.851562 3.847656 -13.851562 L 4.839844 -13.851562 L 4.839844 -2.570312 C 4.839844 -0.910156 4.65625 -0.445312 4.03125 -0.261719 Z M 4.03125 0 "/></g></g></g><g fill="#2b2b2b" fill-opacity="1"><g transform="translate(198.870589, 219.060382)"><g><path d="M 1.03125 0 L 4.3125 0 L 4.3125 -0.261719 C 3.683594 -0.445312 3.503906 -0.910156 3.503906 -2.570312 L 3.503906 -7.351562 L 11.21875 -7.351562 L 11.21875 -2.570312 C 11.21875 -0.910156 11.015625 -0.445312 10.410156 -0.261719 L 10.410156 0 L 13.6875 0 L 13.6875 -0.261719 C 13.0625 -0.445312 12.878906 -0.910156 12.878906 -2.570312 L 12.878906 -11.601562 C 12.878906 -13.265625 13.0625 -13.730469 13.6875 -13.910156 L 13.6875 -14.175781 L 10.410156 -14.175781 L 10.410156 -13.910156 C 11.015625 -13.730469 11.21875 -13.265625 11.21875 -11.601562 L 11.21875 -7.675781 L 3.503906 -7.675781 L 3.503906 -11.601562 C 3.503906 -13.265625 3.683594 -13.730469 4.3125 -13.910156 L 4.3125 -14.175781 L 1.03125 -14.175781 L 1.03125 -13.910156 C 1.640625 -13.730469 1.84375 -13.265625 1.84375 -11.601562 L 1.84375 -2.570312 C 1.84375 -0.910156 1.640625 -0.445312 1.03125 -0.261719 Z M 1.03125 0 "/></g></g></g><g fill="#2b2b2b" fill-opacity="1"><g transform="translate(216.752393, 219.060382)"><g/></g></g><g fill="#2b2b2b" fill-opacity="1"><g transform="translate(224.185216, 219.060382)"><g><path d="M 8.6875 0.203125 C 10.957031 0.203125 12.878906 -0.363281 13.832031 -0.890625 L 14.15625 -3.523438 L 13.933594 -3.542969 C 13.140625 -1.355469 11.441406 -0.203125 9.253906 -0.203125 C 5.042969 -0.203125 2.734375 -3.847656 2.753906 -7.65625 C 2.753906 -11.785156 5.246094 -13.933594 8.464844 -13.933594 C 10.875 -13.933594 12.796875 -12.695312 13.585938 -10.855469 L 13.789062 -10.894531 L 13.710938 -13.304688 C 12.917969 -13.808594 10.894531 -14.316406 9.152344 -14.316406 C 4.394531 -14.316406 1.054688 -11.117188 1.054688 -6.804688 C 1.054688 -2.390625 4.03125 0.203125 8.6875 0.203125 Z M 8.6875 0.203125 "/></g></g></g><g fill="#2b2b2b" fill-opacity="1"><g transform="translate(242.370769, 219.060382)"><g><path d="M 8.261719 0.203125 C 11.664062 0.203125 15.429688 -2.023438 15.429688 -7.027344 C 15.429688 -11.988281 11.683594 -14.335938 8.261719 -14.335938 C 3.96875 -14.335938 1.054688 -11.257812 1.054688 -7.109375 C 1.054688 -2.085938 4.820312 0.203125 8.261719 0.203125 Z M 2.671875 -8.28125 C 2.550781 -11.582031 4.355469 -13.871094 7.433594 -13.871094 C 11.054688 -13.871094 13.710938 -9.921875 13.851562 -5.691406 C 13.953125 -2.652344 12.351562 -0.304688 9.113281 -0.304688 C 5.488281 -0.304688 2.816406 -4.210938 2.671875 -8.28125 Z M 2.671875 -8.28125 "/></g></g></g><g fill="#2b2b2b" fill-opacity="1"><g transform="translate(262.014323, 219.060382)"><g><path d="M -0.34375 0 L 1.945312 0 L 1.945312 -0.261719 C 1.253906 -0.40625 1.175781 -1.074219 1.699219 -2.390625 L 2.894531 -5.347656 L 8.605469 -5.347656 L 9.839844 -2.371094 C 10.488281 -0.851562 10.652344 -0.445312 10.023438 -0.261719 L 10.023438 0 L 13.164062 0 L 13.164062 -0.261719 C 12.738281 -0.445312 12.25 -0.851562 11.625 -2.371094 L 6.640625 -14.335938 L 5.125 -13.648438 L 5.304688 -13.222656 C 5.46875 -12.898438 5.488281 -12.636719 5.347656 -12.273438 L 1.355469 -2.390625 C 0.730469 -0.851562 0.222656 -0.445312 -0.34375 -0.261719 Z M 3.015625 -5.648438 L 5.710938 -12.3125 L 8.484375 -5.648438 Z M 3.015625 -5.648438 "/></g></g></g><g fill="#2b2b2b" fill-opacity="1"><g transform="translate(278.174867, 219.060382)"><g><path d="M 8.6875 0.203125 C 10.957031 0.203125 12.878906 -0.363281 13.832031 -0.890625 L 14.15625 -3.523438 L 13.933594 -3.542969 C 13.140625 -1.355469 11.441406 -0.203125 9.253906 -0.203125 C 5.042969 -0.203125 2.734375 -3.847656 2.753906 -7.65625 C 2.753906 -11.785156 5.246094 -13.933594 8.464844 -13.933594 C 10.875 -13.933594 12.796875 -12.695312 13.585938 -10.855469 L 13.789062 -10.894531 L 13.710938 -13.304688 C 12.917969 -13.808594 10.894531 -14.316406 9.152344 -14.316406 C 4.394531 -14.316406 1.054688 -11.117188 1.054688 -6.804688 C 1.054688 -2.390625 4.03125 0.203125 8.6875 0.203125 Z M 8.6875 0.203125 "/></g></g></g><g fill="#2b2b2b" fill-opacity="1"><g transform="translate(296.36042, 219.060382)"><g><path d="M 1.03125 0 L 4.3125 0 L 4.3125 -0.261719 C 3.683594 -0.445312 3.503906 -0.910156 3.503906 -2.570312 L 3.503906 -7.351562 L 11.21875 -7.351562 L 11.21875 -2.570312 C 11.21875 -0.910156 11.015625 -0.445312 10.410156 -0.261719 L 10.410156 0 L 13.6875 0 L 13.6875 -0.261719 C 13.0625 -0.445312 12.878906 -0.910156 12.878906 -2.570312 L 12.878906 -11.601562 C 12.878906 -13.265625 13.0625 -13.730469 13.6875 -13.910156 L 13.6875 -14.175781 L 10.410156 -14.175781 L 10.410156 -13.910156 C 11.015625 -13.730469 11.21875 -13.265625 11.21875 -11.601562 L 11.21875 -7.675781 L 3.503906 -7.675781 L 3.503906 -11.601562 C 3.503906 -13.265625 3.683594 -13.730469 4.3125 -13.910156 L 4.3125 -14.175781 L 1.03125 -14.175781 L 1.03125 -13.910156 C 1.640625 -13.730469 1.84375 -13.265625 1.84375 -11.601562 L 1.84375 -2.570312 C 1.84375 -0.910156 1.640625 -0.445312 1.03125 -0.261719 Z M 1.03125 0 "/></g></g></g></svg>