<svg width="132" height="22" viewBox="0 0 132 22" fill="none" xmlns="http://www.w3.org/2000/svg">
<path d="M10.9997 1.83325L13.8322 7.57159L20.1663 8.49742L15.583 12.9616L16.6647 19.2683L10.9997 16.2891L5.33467 19.2683L6.41634 12.9616L1.83301 8.49742L8.16717 7.57159L10.9997 1.83325Z" fill="#333333" stroke="#333333" stroke-width="1.83333" stroke-linecap="round" stroke-linejoin="round"/>
<path d="M38.4997 1.83325L41.3322 7.57159L47.6663 8.49742L43.083 12.9616L44.1647 19.2683L38.4997 16.2891L32.8347 19.2683L33.9163 12.9616L29.333 8.49742L35.6672 7.57159L38.4997 1.83325Z" fill="#333333" stroke="#333333" stroke-width="1.83333" stroke-linecap="round" stroke-linejoin="round"/>
<path d="M65.9997 1.83325L68.8322 7.57159L75.1663 8.49742L70.583 12.9616L71.6647 19.2683L65.9997 16.2891L60.3347 19.2683L61.4163 12.9616L56.833 8.49742L63.1672 7.57159L65.9997 1.83325Z" fill="#333333" stroke="#333333" stroke-width="1.83333" stroke-linecap="round" stroke-linejoin="round"/>
<path d="M93.4997 1.83325L96.3322 7.57159L102.666 8.49742L98.083 12.9616L99.1647 19.2683L93.4997 16.2891L87.8347 19.2683L88.9163 12.9616L84.333 8.49742L90.6672 7.57159L93.4997 1.83325Z" fill="#333333" stroke="#333333" stroke-width="1.83333" stroke-linecap="round" stroke-linejoin="round"/>
<path d="M121 1.83325L123.832 7.57159L130.166 8.49742L125.583 12.9616L126.665 19.2683L121 16.2891L115.335 19.2683L116.416 12.9616L111.833 8.49742L118.167 7.57159L121 1.83325Z" fill="#333333" stroke="#333333" stroke-width="1.83333" stroke-linecap="round" stroke-linejoin="round"/>
</svg>
