<svg width="276" height="276" viewBox="0 0 276 276" fill="none" xmlns="http://www.w3.org/2000/svg">
<g clip-path="url(#clip0_231_184)">
<path d="M171.673 142.735C171.673 142.735 169.409 141.98 168.319 140.386C167.228 138.793 163.37 137.032 160.016 137.032C156.661 137.032 152.803 138.793 151.713 140.386C150.623 141.98 148.358 142.735 148.358 142.735" stroke="#333333" stroke-opacity="0.7" stroke-width="2.51598" stroke-miterlimit="10" stroke-linecap="round" stroke-linejoin="round"/>
<path d="M160.1 144.16C162.092 144.16 163.707 142.546 163.707 140.554C163.707 138.562 162.092 136.948 160.1 136.948C158.109 136.948 156.494 138.562 156.494 140.554C156.494 142.546 158.109 144.16 160.1 144.16Z" stroke="#333333" stroke-opacity="0.7" stroke-width="2.51598" stroke-miterlimit="10" stroke-linecap="round" stroke-linejoin="round"/>
<path d="M147.353 139.212C147.353 139.212 151.714 135.27 153.726 134.096C155.739 132.922 161.358 132.335 163.623 133.425C165.887 134.516 170.164 139.212 170.164 139.212" stroke="#333333" stroke-opacity="0.7" stroke-width="2.51598" stroke-miterlimit="10" stroke-linecap="round" stroke-linejoin="round"/>
<path d="M145.423 161.017C145.423 161.017 148.191 163.366 147.52 166.636C146.933 169.823 143.746 169.488 141.481 169.572C139.217 169.656 138.043 172.507 135.527 172.423C133.011 172.507 131.837 169.656 129.573 169.572C127.308 169.488 124.121 169.823 123.534 166.636C122.947 163.449 125.631 161.017 125.631 161.017" stroke="#333333" stroke-opacity="0.7" stroke-width="2.51598" stroke-miterlimit="10" stroke-linecap="round" stroke-linejoin="round"/>
<path d="M132.844 167.391C132.844 167.391 130.495 166.301 131.418 162.024C132.34 157.747 133.682 158.669 133.682 151.96C133.682 145.167 133.682 136.948 133.682 136.948" stroke="#333333" stroke-opacity="0.7" stroke-width="2.51598" stroke-miterlimit="10" stroke-linecap="round" stroke-linejoin="round"/>
<path d="M149.03 181.732C149.03 181.732 146.094 182.068 144.165 181.984C142.236 181.9 141.398 181.397 139.972 181.397C137.121 181.481 137.288 182.487 135.611 182.487C133.934 182.403 134.101 181.481 131.25 181.397C129.824 181.313 128.986 181.9 127.057 181.984C125.128 182.068 122.192 181.732 122.192 181.732" stroke="#333333" stroke-opacity="0.7" stroke-width="2.51598" stroke-miterlimit="10" stroke-linecap="round" stroke-linejoin="round"/>
<path d="M142.823 179.636C142.823 179.636 139.888 178.126 139.049 178.294C138.211 178.545 135.611 180.39 135.611 180.39C135.611 180.39 133.011 178.462 132.172 178.294C131.334 178.126 128.398 179.636 128.398 179.636" stroke="#333333" stroke-opacity="0.7" stroke-width="2.51598" stroke-miterlimit="10" stroke-linecap="round" stroke-linejoin="round"/>
<path d="M144.585 183.661C144.585 183.661 139.217 187.184 135.527 187.184C131.837 187.184 126.47 183.661 126.47 183.661" stroke="#333333" stroke-opacity="0.7" stroke-width="2.51598" stroke-miterlimit="10" stroke-linecap="round" stroke-linejoin="round"/>
<path d="M144.585 126.716C144.585 126.716 154.649 116.736 172.68 126.716" stroke="#333333" stroke-opacity="0.7" stroke-width="2.51598" stroke-miterlimit="10" stroke-linecap="round" stroke-linejoin="round"/>
<path d="M101.227 142.735C101.227 142.735 103.491 141.98 104.581 140.386C105.671 138.793 109.529 137.032 112.884 137.032C116.239 137.032 120.096 138.793 121.187 140.386C122.277 141.98 124.541 142.735 124.541 142.735" stroke="#333333" stroke-opacity="0.7" stroke-width="2.51598" stroke-miterlimit="10" stroke-linecap="round" stroke-linejoin="round"/>
<path d="M112.884 144.16C114.875 144.16 116.49 142.546 116.49 140.554C116.49 138.562 114.875 136.948 112.884 136.948C110.892 136.948 109.277 138.562 109.277 140.554C109.277 142.546 110.892 144.16 112.884 144.16Z" stroke="#333333" stroke-opacity="0.7" stroke-width="2.51598" stroke-miterlimit="10" stroke-linecap="round" stroke-linejoin="round"/>
<path d="M125.631 139.212C125.631 139.212 121.27 135.27 119.257 134.096C117.244 132.922 111.625 132.335 109.361 133.425C107.097 134.516 102.819 139.212 102.819 139.212" stroke="#333333" stroke-opacity="0.7" stroke-width="2.51598" stroke-miterlimit="10" stroke-linecap="round" stroke-linejoin="round"/>
<path d="M128.315 126.716C128.315 126.716 118.251 116.736 100.22 126.716" stroke="#333333" stroke-opacity="0.7" stroke-width="2.51598" stroke-miterlimit="10" stroke-linecap="round" stroke-linejoin="round"/>
<path d="M136.45 209.072C168.827 209.072 195.073 182.826 195.073 150.45C195.073 118.074 168.827 91.8276 136.45 91.8276C104.074 91.8276 77.8281 118.074 77.8281 150.45C77.8281 182.826 104.074 209.072 136.45 209.072Z" stroke="#333333" stroke-opacity="0.7" stroke-width="2.51598" stroke-miterlimit="10" stroke-linecap="round" stroke-linejoin="round"/>
<path d="M144.585 92.4148C143.746 70.4419 141.649 48.5528 138.462 26.9154L136.534 14L134.605 26.9154C131.334 48.5528 129.321 70.358 128.482 92.4148C131.166 92.0793 133.85 91.8277 136.617 91.8277C139.217 91.8277 141.901 92.0793 144.585 92.4148Z" stroke="#333333" stroke-opacity="0.7" stroke-width="2.51598" stroke-miterlimit="10" stroke-linecap="round" stroke-linejoin="round"/>
<path d="M128.398 208.569C129.237 230.542 131.334 252.431 134.521 274.069L136.45 286.984L138.378 274.069C141.649 252.431 143.662 230.626 144.501 208.569C141.817 208.905 139.133 209.156 136.366 209.156C133.766 209.073 130.998 208.905 128.398 208.569Z" stroke="#333333" stroke-opacity="0.7" stroke-width="2.51598" stroke-miterlimit="10" stroke-linecap="round" stroke-linejoin="round"/>
<path d="M194.569 158.585C216.542 157.746 238.431 155.649 260.069 152.462L272.984 150.534L260.069 148.605C238.431 145.334 216.626 143.321 194.569 142.482C194.905 145.166 195.156 147.85 195.156 150.617C195.073 153.217 194.905 155.901 194.569 158.585Z" stroke="#333333" stroke-opacity="0.7" stroke-width="2.51598" stroke-miterlimit="10" stroke-linecap="round" stroke-linejoin="round"/>
<path d="M78.4148 142.399C56.4419 143.237 34.5528 145.334 12.9154 148.521L0 150.45L12.9154 152.379C34.5528 155.65 56.358 157.662 78.4148 158.501C78.0793 155.817 77.8277 153.134 77.8277 150.366C77.8277 147.766 78.0793 144.999 78.4148 142.399Z" stroke="#333333" stroke-opacity="0.7" stroke-width="2.51598" stroke-miterlimit="10" stroke-linecap="round" stroke-linejoin="round"/>
<path d="M112.884 74.719C104.581 70.6934 96.5301 61.8036 94.7689 53.1654C92.9239 44.611 90.324 31.9473 78.415 32.3666C78.415 32.3666 88.5628 38.992 88.1435 50.1462C87.8919 57.9457 84.4534 67.5065 90.6595 74.1319C96.8656 80.7573 102.652 86.8795 102.652 94.092C102.652 100.466 100.136 104.324 100.136 104.324H100.22C108.187 98.0337 117.832 93.8404 128.315 92.3308C128.399 92.4147 123.451 79.8348 112.884 74.719Z" stroke="#333333" stroke-opacity="0.7" stroke-width="2.51598" stroke-miterlimit="10" stroke-linecap="round" stroke-linejoin="round"/>
<path d="M160.1 74.719C168.403 70.6935 176.454 61.8037 178.215 53.1654C179.977 44.5272 182.66 31.9473 194.569 32.3667C194.569 32.3667 184.422 38.9921 184.841 50.1463C185.092 57.9458 188.531 67.5065 182.325 74.132C176.119 80.7574 170.332 86.8796 170.332 94.0921C170.332 100.466 172.848 104.324 172.848 104.324H172.764C164.797 98.0338 155.152 93.8405 144.669 92.3309C144.585 92.4148 149.533 79.8349 160.1 74.719Z" stroke="#333333" stroke-opacity="0.7" stroke-width="2.51598" stroke-miterlimit="10" stroke-linecap="round" stroke-linejoin="round"/>
<path d="M160.1 226.097C168.403 230.123 176.454 239.013 178.215 247.651C179.977 256.289 182.66 268.869 194.569 268.45C194.569 268.45 184.422 261.824 184.841 250.67C185.092 242.871 188.531 233.31 182.325 226.684C176.119 220.059 170.332 213.937 170.332 206.724C170.332 200.351 172.848 196.493 172.848 196.493H172.764C164.797 202.783 155.152 206.976 144.669 208.486C144.585 208.402 149.533 221.065 160.1 226.097Z" stroke="#333333" stroke-opacity="0.7" stroke-width="2.51598" stroke-miterlimit="10" stroke-linecap="round" stroke-linejoin="round"/>
<path d="M112.884 226.097C104.581 230.123 96.5301 239.013 94.7689 247.651C93.0077 256.289 90.324 268.869 78.415 268.45C78.415 268.45 88.5628 261.824 88.1435 250.67C87.8919 242.871 84.4534 233.31 90.6595 226.684C96.8656 220.059 102.652 213.937 102.652 206.724C102.652 200.351 100.136 196.493 100.136 196.493H100.22C108.187 202.783 117.832 206.976 128.315 208.486C128.399 208.402 123.451 221.065 112.884 226.097Z" stroke="#333333" stroke-opacity="0.7" stroke-width="2.51598" stroke-miterlimit="10" stroke-linecap="round" stroke-linejoin="round"/>
<path d="M101.142 103.737C84.956 88.8086 68.0151 74.8029 50.487 61.8037L39.9199 54.0042L47.7195 64.5713C60.7187 82.0993 74.7243 99.0402 89.6525 115.226C91.2459 113.13 93.0071 111.033 94.9361 109.104C96.9488 107.091 99.0455 105.33 101.142 103.737Z" stroke="#333333" stroke-opacity="0.7" stroke-width="2.51598" stroke-miterlimit="10" stroke-linecap="round" stroke-linejoin="round"/>
<path d="M171.842 197.247C188.028 212.175 204.969 226.181 222.497 239.18L233.064 246.98L225.264 236.413C212.265 218.885 198.26 201.944 183.331 185.758C181.738 187.854 179.977 189.951 178.048 191.88C175.951 193.893 173.938 195.654 171.842 197.247Z" stroke="#333333" stroke-opacity="0.7" stroke-width="2.51598" stroke-miterlimit="10" stroke-linecap="round" stroke-linejoin="round"/>
<path d="M183.247 115.142C198.176 98.9562 212.181 82.0153 225.18 64.4873L232.98 53.9202L222.413 61.7197C204.885 74.7189 187.944 88.7246 171.758 103.653C173.854 105.246 175.951 107.007 177.88 108.936C179.893 110.949 181.654 113.046 183.247 115.142Z" stroke="#333333" stroke-opacity="0.7" stroke-width="2.51598" stroke-miterlimit="10" stroke-linecap="round" stroke-linejoin="round"/>
<path d="M89.7365 185.841C74.8083 202.027 60.8027 218.968 47.8034 236.496L40.0039 247.064L50.571 239.264C68.099 226.265 85.04 212.259 101.226 197.331C99.1295 195.738 97.0328 193.976 95.1039 192.047C93.0911 189.951 91.3299 187.938 89.7365 185.841Z" stroke="#333333" stroke-opacity="0.7" stroke-width="2.51598" stroke-miterlimit="10" stroke-linecap="round" stroke-linejoin="round"/>
<path d="M212.181 126.8C216.206 118.497 225.096 110.446 233.734 108.685C242.373 106.924 254.953 104.24 254.533 92.3308C254.533 92.3308 247.908 102.479 236.754 102.059C228.954 101.808 219.393 98.3692 212.768 104.575C206.143 110.781 200.02 116.568 192.808 116.568C186.434 116.568 182.576 114.052 182.576 114.052V114.136C188.866 122.103 193.059 131.748 194.569 142.231C194.485 142.315 207.065 137.367 212.181 126.8Z" stroke="#333333" stroke-opacity="0.7" stroke-width="2.51598" stroke-miterlimit="10" stroke-linecap="round" stroke-linejoin="round"/>
<path d="M212.181 174.016C216.206 182.319 225.096 190.37 233.734 192.131C242.373 193.893 254.953 196.576 254.533 208.485C254.533 208.485 247.908 198.338 236.754 198.757C228.954 199.008 219.393 202.447 212.768 196.241C206.143 190.035 200.02 184.248 192.808 184.248C186.434 184.248 182.576 186.764 182.576 186.764V186.68C188.866 178.713 193.059 169.068 194.569 158.585C194.485 158.501 207.065 163.449 212.181 174.016Z" stroke="#333333" stroke-opacity="0.7" stroke-width="2.51598" stroke-miterlimit="10" stroke-linecap="round" stroke-linejoin="round"/>
<path d="M60.803 174.016C56.7774 182.319 47.8876 190.37 39.2494 192.131C30.6112 193.893 18.0313 196.576 18.4506 208.485C18.4506 208.485 25.0761 198.338 36.2303 198.757C44.0298 199.008 53.5905 202.447 60.2159 196.241C66.8414 190.035 72.9636 184.248 80.1761 184.248C86.5499 184.248 90.4077 186.764 90.4077 186.764V186.68C84.1178 178.713 79.9245 169.068 78.4149 158.585C78.4987 158.501 65.835 163.449 60.803 174.016Z" stroke="#333333" stroke-opacity="0.7" stroke-width="2.51598" stroke-miterlimit="10" stroke-linecap="round" stroke-linejoin="round"/>
<path d="M60.803 126.8C56.7774 118.497 47.8876 110.446 39.2494 108.685C30.6112 106.924 18.0313 104.24 18.4506 92.4148C18.4506 92.4148 25.0761 102.563 36.2303 102.143C44.0298 101.892 53.5905 98.4531 60.2159 104.659C66.8414 110.865 72.9636 116.652 80.1761 116.652C86.5499 116.652 90.4077 114.136 90.4077 114.136V114.22C84.1178 122.187 79.9245 131.832 78.4149 142.315C78.4987 142.315 65.835 137.367 60.803 126.8Z" stroke="#333333" stroke-opacity="0.7" stroke-width="2.51598" stroke-miterlimit="10" stroke-linecap="round" stroke-linejoin="round"/>
</g>
<defs>
<clipPath id="clip0_231_184">
<rect width="275.5" height="275.5" fill="white"/>
</clipPath>
</defs>
</svg>
