<svg width="282" height="281" viewBox="0 0 282 281" fill="none" xmlns="http://www.w3.org/2000/svg">
     <path d="M176.795 132.629C176.795 132.629 174.489 131.863 173.379 130.246C172.269 128.629 168.341 126.842 164.925 126.842C161.51 126.842 157.582 128.629 156.472 130.246C155.361 131.863 153.056 132.629 153.056 132.629"
          stroke="#EFEEE8" stroke-width="2.56172" stroke-miterlimit="10" stroke-linecap="round"
          stroke-linejoin="round" />
     <path d="M165.01 134.075C167.038 134.075 168.682 132.437 168.682 130.416C168.682 128.395 167.038 126.757 165.01 126.757C162.983 126.757 161.339 128.395 161.339 130.416C161.339 132.437 162.983 134.075 165.01 134.075Z"
          stroke="#EFEEE8" stroke-width="2.56172" stroke-miterlimit="10" stroke-linecap="round"
          stroke-linejoin="round" />
     <path d="M152.032 129.056C152.032 129.056 156.472 125.056 158.521 123.865C160.571 122.673 166.292 122.078 168.597 123.184C170.903 124.29 175.258 129.056 175.258 129.056"
          stroke="#EFEEE8" stroke-width="2.56172" stroke-miterlimit="10" stroke-linecap="round"
          stroke-linejoin="round" />
     <path d="M150.068 151.182C150.068 151.182 152.885 153.564 152.202 156.883C151.605 160.117 148.36 159.777 146.054 159.862C143.749 159.947 142.553 162.84 139.991 162.755C137.43 162.84 136.234 159.947 133.929 159.862C131.623 159.777 128.378 160.117 127.781 156.883C127.183 153.65 129.915 151.182 129.915 151.182"
          stroke="#EFEEE8" stroke-width="2.56172" stroke-miterlimit="10" stroke-linecap="round"
          stroke-linejoin="round" />
     <path d="M137.259 157.648C137.259 157.648 134.868 156.542 135.807 152.202C136.747 147.862 138.113 148.798 138.113 141.99C138.113 135.097 138.113 126.757 138.113 126.757"
          stroke="#EFEEE8" stroke-width="2.56172" stroke-miterlimit="10" stroke-linecap="round"
          stroke-linejoin="round" />
     <path d="M153.739 172.2C153.739 172.2 150.75 172.54 148.786 172.455C146.822 172.37 145.968 171.859 144.517 171.859C141.613 171.944 141.784 172.965 140.076 172.965C138.369 172.88 138.539 171.944 135.636 171.859C134.184 171.774 133.33 172.37 131.366 172.455C129.402 172.54 126.414 172.2 126.414 172.2"
          stroke="#EFEEE8" stroke-width="2.56172" stroke-miterlimit="10" stroke-linecap="round"
          stroke-linejoin="round" />
     <path d="M147.42 170.073C147.42 170.073 144.431 168.541 143.577 168.711C142.723 168.967 140.076 170.839 140.076 170.839C140.076 170.839 137.429 168.882 136.575 168.711C135.721 168.541 132.733 170.073 132.733 170.073"
          stroke="#EFEEE8" stroke-width="2.56172" stroke-miterlimit="10" stroke-linecap="round"
          stroke-linejoin="round" />
     <path d="M149.213 174.159C149.213 174.159 143.748 177.733 139.991 177.733C136.234 177.733 130.769 174.159 130.769 174.159"
          stroke="#EFEEE8" stroke-width="2.56172" stroke-miterlimit="10" stroke-linecap="round"
          stroke-linejoin="round" />
     <path d="M149.214 116.376C149.214 116.376 159.461 106.249 177.82 116.376" stroke="#EFEEE8" stroke-width="2.56172"
          stroke-miterlimit="10" stroke-linecap="round" stroke-linejoin="round" />
     <path d="M105.066 132.629C105.066 132.629 107.372 131.863 108.482 130.246C109.592 128.629 113.52 126.842 116.936 126.842C120.351 126.842 124.279 128.629 125.389 130.246C126.499 131.863 128.805 132.629 128.805 132.629"
          stroke="#EFEEE8" stroke-width="2.56172" stroke-miterlimit="10" stroke-linecap="round"
          stroke-linejoin="round" />
     <path d="M116.936 134.075C118.964 134.075 120.608 132.437 120.608 130.416C120.608 128.395 118.964 126.757 116.936 126.757C114.908 126.757 113.264 128.395 113.264 130.416C113.264 132.437 114.908 134.075 116.936 134.075Z"
          stroke="#EFEEE8" stroke-width="2.56172" stroke-miterlimit="10" stroke-linecap="round"
          stroke-linejoin="round" />
     <path d="M129.915 129.056C129.915 129.056 125.475 125.056 123.425 123.865C121.376 122.673 115.655 122.078 113.349 123.184C111.044 124.29 106.689 129.056 106.689 129.056"
          stroke="#EFEEE8" stroke-width="2.56172" stroke-miterlimit="10" stroke-linecap="round"
          stroke-linejoin="round" />
     <path d="M132.648 116.376C132.648 116.376 122.401 106.249 104.042 116.376" stroke="#EFEEE8" stroke-width="2.56172"
          stroke-miterlimit="10" stroke-linecap="round" stroke-linejoin="round" />
     <path d="M140.93 199.942C173.895 199.942 200.619 173.31 200.619 140.458C200.619 107.605 173.895 80.9731 140.93 80.9731C107.966 80.9731 81.2424 107.605 81.2424 140.458C81.2424 173.31 107.966 199.942 140.93 199.942Z"
          stroke="#EFEEE8" stroke-width="2.56172" stroke-miterlimit="10" stroke-linecap="round"
          stroke-linejoin="round" />
     <path d="M149.214 81.5681C148.36 59.272 146.225 37.061 142.98 15.1053L141.016 2L139.052 15.1053C135.722 37.061 133.673 59.1869 132.819 81.5681C135.551 81.2277 138.284 80.9724 141.102 80.9724C143.749 80.9724 146.481 81.2277 149.214 81.5681Z"
          stroke="#EFEEE8" stroke-width="2.56172" stroke-miterlimit="10" stroke-linecap="round"
          stroke-linejoin="round" />
     <path d="M132.733 199.432C133.587 221.728 135.722 243.939 138.967 265.895L140.931 279L142.895 265.895C146.225 243.939 148.274 221.813 149.128 199.432C146.396 199.772 143.663 200.028 140.845 200.028C138.198 199.942 135.38 199.772 132.733 199.432Z"
          stroke="#EFEEE8" stroke-width="2.56172" stroke-miterlimit="10" stroke-linecap="round"
          stroke-linejoin="round" />
     <path d="M200.106 148.712C222.479 147.861 244.766 145.733 266.797 142.499L279.947 140.542L266.797 138.585C244.766 135.266 222.564 133.224 200.106 132.373C200.448 135.096 200.704 137.819 200.704 140.627C200.619 143.265 200.448 145.988 200.106 148.712Z"
          stroke="#EFEEE8" stroke-width="2.56172" stroke-miterlimit="10" stroke-linecap="round"
          stroke-linejoin="round" />
     <path d="M81.8403 132.288C59.4679 133.139 37.181 135.266 15.1502 138.5L2 140.457L15.1502 142.414C37.181 145.733 59.3825 147.776 81.8403 148.627C81.4987 145.904 81.2425 143.18 81.2425 140.372C81.2425 137.734 81.4987 134.926 81.8403 132.288Z"
          stroke="#EFEEE8" stroke-width="2.56172" stroke-miterlimit="10" stroke-linecap="round"
          stroke-linejoin="round" />
     <path d="M116.935 63.6145C108.482 59.5297 100.284 50.5092 98.491 41.7439C96.6124 33.0637 93.9653 20.2137 81.8398 20.6392C81.8398 20.6392 92.1721 27.3621 91.7452 38.6803C91.489 46.5946 87.988 56.2959 94.3069 63.0188C100.626 69.7417 106.518 75.9539 106.518 83.2725C106.518 89.7401 103.956 93.6546 103.956 93.6546H104.041C112.154 87.2722 121.973 83.0172 132.647 81.4854C132.733 81.5705 127.695 68.8056 116.935 63.6145Z"
          stroke="#EFEEE8" stroke-width="2.56172" stroke-miterlimit="10" stroke-linecap="round"
          stroke-linejoin="round" />
     <path d="M165.01 63.6146C173.464 59.5298 181.661 50.5092 183.455 41.744C185.248 32.9787 187.98 20.2138 200.106 20.6393C200.106 20.6393 189.773 27.3621 190.2 38.6804C190.457 46.5946 193.958 56.296 187.639 63.0189C181.32 69.7417 175.428 75.954 175.428 83.2726C175.428 89.7401 177.99 93.6547 177.99 93.6547H177.904C169.792 87.2722 159.972 83.0173 149.298 81.4855C149.213 81.5706 154.251 68.8056 165.01 63.6146Z"
          stroke="#EFEEE8" stroke-width="2.56172" stroke-miterlimit="10" stroke-linecap="round"
          stroke-linejoin="round" />
     <path d="M165.01 217.218C173.464 221.303 181.661 230.323 183.455 239.088C185.248 247.854 187.98 260.619 200.106 260.193C200.106 260.193 189.774 253.47 190.201 242.152C190.457 234.238 193.958 224.536 187.639 217.814C181.32 211.091 175.428 204.878 175.428 197.56C175.428 191.092 177.99 187.178 177.99 187.178H177.904C169.792 193.56 159.972 197.815 149.298 199.347C149.213 199.262 154.251 212.112 165.01 217.218Z"
          stroke="#EFEEE8" stroke-width="2.56172" stroke-miterlimit="10" stroke-linecap="round"
          stroke-linejoin="round" />
     <path d="M116.936 217.218C108.482 221.302 100.284 230.323 98.4911 239.088C96.6979 247.854 93.9654 260.618 81.84 260.193C81.84 260.193 92.1722 253.47 91.7453 242.152C91.4891 234.238 87.9881 224.536 94.307 217.813C100.626 211.09 106.518 204.878 106.518 197.56C106.518 191.092 103.956 187.177 103.956 187.177H104.042C112.154 193.56 121.974 197.815 132.647 199.347C132.733 199.262 127.695 212.112 116.936 217.218Z"
          stroke="#EFEEE8" stroke-width="2.56172" stroke-miterlimit="10" stroke-linecap="round"
          stroke-linejoin="round" />
     <path d="M104.982 93.0573C88.5013 77.9096 71.2524 63.698 53.4057 50.5075L42.6465 42.5933L50.5878 53.3158C63.8234 71.1016 78.0836 88.2917 93.2831 104.716C94.9056 102.588 96.6988 100.461 98.6628 98.5037C100.712 96.4613 102.847 94.6742 104.982 93.0573Z"
          stroke="#EFEEE8" stroke-width="2.56172" stroke-miterlimit="10" stroke-linecap="round"
          stroke-linejoin="round" />
     <path d="M176.966 187.945C193.446 203.092 210.695 217.304 228.542 230.495L239.301 238.409L231.359 227.686C218.124 209.9 203.864 192.71 188.664 176.286C187.042 178.414 185.248 180.541 183.284 182.498C181.15 184.541 179.1 186.328 176.966 187.945Z"
          stroke="#EFEEE8" stroke-width="2.56172" stroke-miterlimit="10" stroke-linecap="round"
          stroke-linejoin="round" />
     <path d="M188.579 104.633C203.779 88.2085 218.039 71.0184 231.275 53.2326L239.216 42.51L228.457 50.4243C210.61 63.6147 193.361 77.8263 176.881 92.9741C179.016 94.591 181.15 96.378 183.114 98.3353C185.164 100.378 186.957 102.505 188.579 104.633Z"
          stroke="#EFEEE8" stroke-width="2.56172" stroke-miterlimit="10" stroke-linecap="round"
          stroke-linejoin="round" />
     <path d="M93.3687 176.372C78.1692 192.796 63.9089 209.986 50.6734 227.772L42.7321 238.495L53.4913 230.58C71.3379 217.39 88.5868 203.178 105.067 188.03C102.932 186.414 100.798 184.626 98.8337 182.669C96.7843 180.542 94.9911 178.499 93.3687 176.372Z"
          stroke="#EFEEE8" stroke-width="2.56172" stroke-miterlimit="10" stroke-linecap="round"
          stroke-linejoin="round" />
     <path d="M218.037 116.46C222.136 108.035 231.187 99.8656 239.983 98.0785C248.778 96.2915 261.587 93.5683 261.16 81.4841C261.16 81.4841 254.414 91.7812 243.057 91.3557C235.115 91.1004 225.381 87.6113 218.635 93.9087C211.889 100.206 205.656 106.078 198.312 106.078C191.822 106.078 187.894 103.525 187.894 103.525V103.61C194.299 111.694 198.568 121.481 200.105 132.118C200.02 132.203 212.828 127.183 218.037 116.46Z"
          stroke="#EFEEE8" stroke-width="2.56172" stroke-miterlimit="10" stroke-linecap="round"
          stroke-linejoin="round" />
     <path d="M218.037 164.37C222.136 172.795 231.187 180.964 239.983 182.751C248.778 184.538 261.587 187.262 261.16 199.346C261.16 199.346 254.414 189.049 243.057 189.474C235.115 189.73 225.381 193.219 218.635 186.921C211.889 180.624 205.656 174.752 198.312 174.752C191.822 174.752 187.894 177.305 187.894 177.305V177.22C194.299 169.135 198.568 159.349 200.105 148.712C200.02 148.626 212.828 153.647 218.037 164.37Z"
          stroke="#EFEEE8" stroke-width="2.56172" stroke-miterlimit="10" stroke-linecap="round"
          stroke-linejoin="round" />
     <path d="M63.9082 164.372C59.8094 172.796 50.758 180.966 41.9628 182.753C33.1676 184.54 20.359 187.263 20.7859 199.347C20.7859 199.347 27.5318 189.05 38.8887 189.476C46.8301 189.731 56.5646 193.22 63.3105 186.923C70.0563 180.626 76.2898 174.754 83.6334 174.754C90.1231 174.754 94.0511 177.307 94.0511 177.307V177.222C87.6468 169.137 83.3773 159.351 81.8402 148.713C81.9256 148.628 69.0316 153.649 63.9082 164.372Z"
          stroke="#EFEEE8" stroke-width="2.56172" stroke-miterlimit="10" stroke-linecap="round"
          stroke-linejoin="round" />
     <path d="M63.9083 116.46C59.8096 108.035 50.7582 99.8653 41.9629 98.0782C33.1677 96.2911 20.3591 93.5679 20.786 81.5688C20.786 81.5688 27.5319 91.8659 38.8889 91.4404C46.8302 91.1851 56.5647 87.696 63.3106 93.9934C70.0564 100.291 76.29 106.163 83.6336 106.163C90.1232 106.163 94.0512 103.61 94.0512 103.61V103.695C87.6469 111.779 83.3774 121.566 81.8404 132.203C81.9257 132.203 69.0318 127.182 63.9083 116.46Z"
          stroke="#EFEEE8" stroke-width="2.56172" stroke-miterlimit="10" stroke-linecap="round"
          stroke-linejoin="round" />
</svg>