<svg width="44" height="44" viewBox="0 0 44 44" fill="none" xmlns="http://www.w3.org/2000/svg">
     <circle cx="22" cy="22" r="22" fill="#333333" />
     <g clip-path="url(#clip0_25_7908)">
          <path d="M28.2373 18.8571H29.0717C29.4885 18.8571 29.8882 19.0227 30.1829 19.3174C30.4776 19.6121 30.6431 20.0118 30.6431 20.4286V23.5714C30.6431 23.9882 30.4776 24.3879 30.1829 24.6826C29.8882 24.9773 29.4885 25.1428 29.0717 25.1428H28.2373C28.0457 26.6619 27.3064 28.0588 26.1581 29.0714C25.0097 30.084 23.5313 30.6428 22.0003 30.6428V29.0714C23.2506 29.0714 24.4497 28.5747 25.3338 27.6906C26.2179 26.8065 26.7146 25.6074 26.7146 24.3571V19.6428C26.7146 18.3925 26.2179 17.1934 25.3338 16.3093C24.4497 15.4252 23.2506 14.9286 22.0003 14.9286C20.75 14.9286 19.5509 15.4252 18.6668 16.3093C17.7827 17.1934 17.286 18.3925 17.286 19.6428V25.1428H14.9289C14.5121 25.1428 14.1124 24.9773 13.8177 24.6826C13.523 24.3879 13.3574 23.9882 13.3574 23.5714V20.4286C13.3574 20.0118 13.523 19.6121 13.8177 19.3174C14.1124 19.0227 14.5121 18.8571 14.9289 18.8571H15.7633C15.955 17.3383 16.6944 15.9416 17.8427 14.9291C18.991 13.9166 20.4694 13.358 22.0003 13.358C23.5312 13.358 25.0095 13.9166 26.1578 14.9291C27.3061 15.9416 28.0455 17.3383 28.2373 18.8571ZM14.9289 20.4286V23.5714H15.7146V20.4286H14.9289ZM28.286 20.4286V23.5714H29.0717V20.4286H28.286ZM18.6688 24.9739L19.5017 23.6413C20.2506 24.1104 21.1166 24.3586 22.0003 24.3571C22.8839 24.3586 23.75 24.1104 24.4988 23.6413L25.3317 24.9739C24.3333 25.5995 23.1785 25.9304 22.0003 25.9286C20.8221 25.9304 19.6673 25.5995 18.6688 24.9739Z"
               fill="#EFEEE8" />
     </g>
     <defs>
          <clipPath id="clip0_25_7908">
               <rect width="18.8571" height="18.8571" fill="white" transform="translate(12.5713 12.5714)" />
          </clipPath>
     </defs>
</svg>