<svg width="44" height="44" viewBox="0 0 44 44" fill="none" xmlns="http://www.w3.org/2000/svg">
     <circle cx="22" cy="22" r="22" fill="#333333" />
     <g clip-path="url(#clip0_25_7914)">
          <path d="M21.9997 21.2143C23.0416 21.2143 24.0409 21.6282 24.7776 22.3649C25.5144 23.1017 25.9283 24.1009 25.9283 25.1428V29.8571H24.3569V25.1428C24.3569 24.5416 24.1272 23.9631 23.7147 23.5256C23.3022 23.0882 22.7382 22.8249 22.138 22.7896L21.9997 22.7857C21.3985 22.7856 20.82 23.0154 20.3825 23.4278C19.9451 23.8403 19.6818 24.4043 19.6465 25.0045L19.6426 25.1428V29.8571H18.0711V25.1428C18.0711 24.1009 18.4851 23.1017 19.2218 22.3649C19.9586 21.6282 20.9578 21.2143 21.9997 21.2143ZM16.8926 23.5714C17.1118 23.5714 17.3247 23.5973 17.529 23.6453C17.3947 24.0452 17.3151 24.4615 17.2925 24.8828L17.2854 25.1428V25.2104C17.1951 25.1781 17.1012 25.157 17.0057 25.1475L16.8926 25.1428C16.5996 25.1428 16.3171 25.252 16.1002 25.449C15.8834 25.6459 15.7476 25.9166 15.7195 26.2083L15.714 26.3214V29.8571H14.1426V26.3214C14.1426 25.592 14.4323 24.8926 14.948 24.3769C15.4638 23.8611 16.1632 23.5714 16.8926 23.5714ZM27.1069 23.5714C27.8362 23.5714 28.5357 23.8611 29.0514 24.3769C29.5671 24.8926 29.8569 25.592 29.8569 26.3214V29.8571H28.2854V26.3214C28.2854 26.0284 28.1763 25.7459 27.9793 25.5291C27.7823 25.3122 27.5116 25.1764 27.22 25.1483L27.1069 25.1428C26.9694 25.1428 26.8374 25.1664 26.714 25.2096V25.1428C26.714 24.6195 26.6291 24.1167 26.4712 23.6468C26.6747 23.5973 26.8876 23.5714 27.1069 23.5714ZM16.8926 18.8571C17.4135 18.8571 17.9132 19.0641 18.2815 19.4324C18.6499 19.8008 18.8569 20.3004 18.8569 20.8214C18.8569 21.3424 18.6499 21.842 18.2815 22.2104C17.9132 22.5787 17.4135 22.7857 16.8926 22.7857C16.3716 22.7857 15.872 22.5787 15.5036 22.2104C15.1352 21.842 14.9283 21.3424 14.9283 20.8214C14.9283 20.3004 15.1352 19.8008 15.5036 19.4324C15.872 19.0641 16.3716 18.8571 16.8926 18.8571ZM27.1069 18.8571C27.6278 18.8571 28.1274 19.0641 28.4958 19.4324C28.8642 19.8008 29.0711 20.3004 29.0711 20.8214C29.0711 21.3424 28.8642 21.842 28.4958 22.2104C28.1274 22.5787 27.6278 22.7857 27.1069 22.7857C26.5859 22.7857 26.0863 22.5787 25.7179 22.2104C25.3495 21.842 25.1426 21.3424 25.1426 20.8214C25.1426 20.3004 25.3495 19.8008 25.7179 19.4324C26.0863 19.0641 26.5859 18.8571 27.1069 18.8571ZM16.8926 20.4285C16.7884 20.4285 16.6885 20.4699 16.6148 20.5436C16.5411 20.6173 16.4997 20.7172 16.4997 20.8214C16.4997 20.9256 16.5411 21.0255 16.6148 21.0992C16.6885 21.1729 16.7884 21.2143 16.8926 21.2143C16.9968 21.2143 17.0967 21.1729 17.1704 21.0992C17.244 21.0255 17.2854 20.9256 17.2854 20.8214C17.2854 20.7172 17.244 20.6173 17.1704 20.5436C17.0967 20.4699 16.9968 20.4285 16.8926 20.4285ZM27.1069 20.4285C27.0027 20.4285 26.9027 20.4699 26.8291 20.5436C26.7554 20.6173 26.714 20.7172 26.714 20.8214C26.714 20.9256 26.7554 21.0255 26.8291 21.0992C26.9027 21.1729 27.0027 21.2143 27.1069 21.2143C27.2111 21.2143 27.311 21.1729 27.3847 21.0992C27.4583 21.0255 27.4997 20.9256 27.4997 20.8214C27.4997 20.7172 27.4583 20.6173 27.3847 20.5436C27.311 20.4699 27.2111 20.4285 27.1069 20.4285ZM21.9997 14.1428C22.8333 14.1428 23.6327 14.4739 24.2221 15.0633C24.8115 15.6527 25.1426 16.4521 25.1426 17.2857C25.1426 18.1192 24.8115 18.9186 24.2221 19.508C23.6327 20.0974 22.8333 20.4285 21.9997 20.4285C21.1662 20.4285 20.3668 20.0974 19.7774 19.508C19.188 18.9186 18.8569 18.1192 18.8569 17.2857C18.8569 16.4521 19.188 15.6527 19.7774 15.0633C20.3668 14.4739 21.1662 14.1428 21.9997 14.1428ZM21.9997 15.7143C21.583 15.7143 21.1833 15.8798 20.8886 16.1745C20.5939 16.4692 20.4283 16.8689 20.4283 17.2857C20.4283 17.7024 20.5939 18.1021 20.8886 18.3968C21.1833 18.6915 21.583 18.8571 21.9997 18.8571C22.4165 18.8571 22.8162 18.6915 23.1109 18.3968C23.4056 18.1021 23.5711 17.7024 23.5711 17.2857C23.5711 16.8689 23.4056 16.4692 23.1109 16.1745C22.8162 15.8798 22.4165 15.7143 21.9997 15.7143Z"
               fill="#EFEEE8" />
     </g>
     <defs>
          <clipPath id="clip0_25_7914">
               <rect width="18.8571" height="18.8571" fill="white" transform="translate(12.5713 12.5714)" />
          </clipPath>
     </defs>
</svg>