<svg width="44" height="44" viewBox="0 0 44 44" fill="none" xmlns="http://www.w3.org/2000/svg">
     <circle cx="22" cy="22" r="22" fill="#333333" />
     <path d="M25.9283 14.9287H29.0711C29.2795 14.9287 29.4794 15.0115 29.6267 15.1589C29.7741 15.3062 29.8569 15.5061 29.8569 15.7144V28.2859C29.8569 28.4943 29.7741 28.6941 29.6267 28.8415C29.4794 28.9888 29.2795 29.0716 29.0711 29.0716H14.9283C14.7199 29.0716 14.5201 28.9888 14.3727 28.8415C14.2254 28.6941 14.1426 28.4943 14.1426 28.2859V15.7144C14.1426 15.5061 14.2254 15.3062 14.3727 15.1589C14.5201 15.0115 14.7199 14.9287 14.9283 14.9287H18.0711V13.3573H19.6426V14.9287H24.3569V13.3573H25.9283V14.9287ZM28.2854 21.2144H15.714V27.5002H28.2854V21.2144ZM24.3569 16.5002H19.6426V18.0716H18.0711V16.5002H15.714V19.643H28.2854V16.5002H25.9283V18.0716H24.3569V16.5002ZM17.2854 22.7859H18.8569V24.3573H17.2854V22.7859ZM21.214 22.7859H22.7854V24.3573H21.214V22.7859ZM25.1426 22.7859H26.714V24.3573H25.1426V22.7859Z"
          fill="#EFEEE8" />
</svg>