<svg width="44" height="44" viewBox="0 0 44 44" fill="none" xmlns="http://www.w3.org/2000/svg">
     <circle cx="22" cy="22" r="22" fill="#333333" />
     <g clip-path="url(#clip0_25_7901)">
          <path d="M15.0548 16.0828C15.9662 15.1711 17.1888 14.6379 18.477 14.5901C19.7653 14.5423 21.0239 14.9835 22.0005 15.8251C22.9761 14.9849 24.2331 14.5442 25.5199 14.5913C26.8066 14.6384 28.028 15.1698 28.9396 16.079C29.8513 16.9883 30.3858 18.2083 30.4363 19.4949C30.4868 20.7815 30.0494 22.0396 29.2118 23.0175L23.1107 29.1382C22.8304 29.4186 22.4544 29.5827 22.0582 29.5976C21.662 29.6124 21.2749 29.477 20.9743 29.2184L20.8879 29.139L14.7876 23.0175C13.9504 22.0405 13.5129 20.7835 13.5624 19.4978C13.6119 18.2121 14.1449 16.9925 15.0548 16.0828ZM16.1658 17.1938C15.5232 17.8365 15.1529 18.7019 15.1315 19.6105C15.1101 20.519 15.4394 21.4009 16.051 22.0731L16.1658 22.1941L21.9997 28.028L26.1663 23.8606L23.3888 21.0831L22.556 21.9159C22.3371 22.1349 22.0773 22.3086 21.7913 22.4271C21.5053 22.5456 21.1988 22.6067 20.8892 22.6068C20.264 22.6069 19.6644 22.3587 19.2222 21.9167C18.78 21.4747 18.5315 20.8752 18.5313 20.25C18.5312 19.6248 18.7794 19.0251 19.2214 18.5829L20.873 16.9306C20.2157 16.406 19.393 16.1328 18.5525 16.16C17.712 16.1873 16.9087 16.5131 16.2868 17.0791L16.1658 17.1938ZM22.8333 19.4158C22.9807 19.2685 23.1805 19.1857 23.3888 19.1857C23.5972 19.1857 23.797 19.2685 23.9443 19.4158L27.2773 22.7488L27.8336 22.1941C28.4869 21.5412 28.8588 20.6587 28.8698 19.7352C28.8809 18.8117 28.5301 17.9206 27.8926 17.2524C27.255 16.5841 26.3813 16.1919 25.4584 16.1595C24.5354 16.1271 23.6363 16.4572 22.9535 17.0791L22.8333 17.1938L20.3332 19.6939C20.197 19.83 20.1155 20.0114 20.1042 20.2036C20.0929 20.3958 20.1526 20.5855 20.2719 20.7366L20.3332 20.8049C20.4693 20.9411 20.6506 21.0226 20.8428 21.0339C21.0351 21.0452 21.2247 20.9855 21.3758 20.8662L21.4442 20.8049L22.8333 19.4158Z"
               fill="#EFEEE8" />
     </g>
     <defs>
          <clipPath id="clip0_25_7901">
               <rect width="18.8571" height="18.8571" fill="white" transform="translate(12.5713 12.5714)" />
          </clipPath>
     </defs>
</svg>